<mxfile host="app.diagrams.net" agent="Mozilla/5.0 (Windows NT 10.0; Win64; x64) AppleWebKit/537.36 (KHTML, like Gecko) Chrome/129.0.0.0 Safari/537.36 Edg/129.0.0.0" version="24.7.17" pages="4">
  <diagram name="sso-arc" id="fXnYluxO89tF65Rm-cYq">
    <mxGraphModel dx="1213" dy="768" grid="1" gridSize="10" guides="1" tooltips="1" connect="1" arrows="1" fold="1" page="1" pageScale="1" pageWidth="850" pageHeight="1100" math="0" shadow="0">
      <root>
        <mxCell id="0" />
        <mxCell id="1" parent="0" />
        <mxCell id="g7Y0x1dQii0XRK5u0iSd-1" value="" style="whiteSpace=wrap;html=1;fillColor=#dae8fc;strokeColor=#6c8ebf;" vertex="1" parent="1">
          <mxGeometry x="200" y="200" width="620" height="400" as="geometry" />
        </mxCell>
        <mxCell id="g7Y0x1dQii0XRK5u0iSd-2" value="开发桌面" style="sketch=0;aspect=fixed;pointerEvents=1;shadow=0;dashed=0;html=1;strokeColor=none;labelPosition=center;verticalLabelPosition=bottom;verticalAlign=top;align=center;fillColor=#00188D;shape=mxgraph.mscae.enterprise.client_application" vertex="1" parent="1">
          <mxGeometry x="100" y="320" width="50" height="32" as="geometry" />
        </mxCell>
        <mxCell id="g7Y0x1dQii0XRK5u0iSd-3" value="办公网" style="sketch=0;aspect=fixed;pointerEvents=1;shadow=0;dashed=0;html=1;strokeColor=none;labelPosition=center;verticalLabelPosition=bottom;verticalAlign=top;align=center;fillColor=#00188D;shape=mxgraph.mscae.enterprise.client_application" vertex="1" parent="1">
          <mxGeometry x="100" y="430" width="50" height="32" as="geometry" />
        </mxCell>
        <mxCell id="g7Y0x1dQii0XRK5u0iSd-4" style="edgeStyle=orthogonalEdgeStyle;rounded=0;orthogonalLoop=1;jettySize=auto;html=1;" edge="1" parent="1" source="g7Y0x1dQii0XRK5u0iSd-5">
          <mxGeometry relative="1" as="geometry">
            <mxPoint x="320" y="391" as="targetPoint" />
          </mxGeometry>
        </mxCell>
        <mxCell id="g7Y0x1dQii0XRK5u0iSd-5" value="SLB" style="image;sketch=0;aspect=fixed;html=1;points=[];align=center;fontSize=12;image=img/lib/mscae/Cloud_Service.svg;" vertex="1" parent="1">
          <mxGeometry x="220" y="370" width="50" height="42" as="geometry" />
        </mxCell>
        <mxCell id="g7Y0x1dQii0XRK5u0iSd-6" style="edgeStyle=orthogonalEdgeStyle;rounded=0;orthogonalLoop=1;jettySize=auto;html=1;entryX=0;entryY=0.5;entryDx=0;entryDy=0;" edge="1" parent="1" source="g7Y0x1dQii0XRK5u0iSd-7" target="g7Y0x1dQii0XRK5u0iSd-16">
          <mxGeometry relative="1" as="geometry" />
        </mxCell>
        <mxCell id="g7Y0x1dQii0XRK5u0iSd-7" value="SLB" style="image;sketch=0;aspect=fixed;html=1;points=[];align=center;fontSize=12;image=img/lib/mscae/Cloud_Service.svg;" vertex="1" parent="1">
          <mxGeometry x="470" y="370" width="50" height="42" as="geometry" />
        </mxCell>
        <mxCell id="g7Y0x1dQii0XRK5u0iSd-8" value="OB" style="image;sketch=0;aspect=fixed;html=1;points=[];align=center;fontSize=12;image=img/lib/mscae/SQL_Database_generic.svg;" vertex="1" parent="1">
          <mxGeometry x="590" y="500" width="38" height="50" as="geometry" />
        </mxCell>
        <mxCell id="g7Y0x1dQii0XRK5u0iSd-9" value="redis" style="image;sketch=0;aspect=fixed;html=1;points=[];align=center;fontSize=12;image=img/lib/mscae/Cache_Redis_Product.svg;" vertex="1" parent="1">
          <mxGeometry x="660" y="504" width="50" height="42" as="geometry" />
        </mxCell>
        <mxCell id="g7Y0x1dQii0XRK5u0iSd-10" value="" style="group" vertex="1" connectable="0" parent="1">
          <mxGeometry x="320" y="291" width="92" height="200" as="geometry" />
        </mxCell>
        <mxCell id="g7Y0x1dQii0XRK5u0iSd-11" value="..." style="whiteSpace=wrap;html=1;" vertex="1" parent="g7Y0x1dQii0XRK5u0iSd-10">
          <mxGeometry width="92" height="200" as="geometry" />
        </mxCell>
        <mxCell id="g7Y0x1dQii0XRK5u0iSd-12" value="" style="sketch=0;aspect=fixed;pointerEvents=1;shadow=1;dashed=0;html=1;strokeColor=none;labelPosition=center;verticalLabelPosition=bottom;verticalAlign=top;align=center;fillColor=#00188D;shape=mxgraph.mscae.enterprise.web_server" vertex="1" parent="g7Y0x1dQii0XRK5u0iSd-10">
          <mxGeometry x="27" y="130" width="38" height="50" as="geometry" />
        </mxCell>
        <mxCell id="g7Y0x1dQii0XRK5u0iSd-13" value="" style="sketch=0;aspect=fixed;pointerEvents=1;shadow=1;dashed=0;html=1;strokeColor=none;labelPosition=center;verticalLabelPosition=bottom;verticalAlign=top;align=center;fillColor=#00188D;shape=mxgraph.mscae.enterprise.web_server" vertex="1" parent="g7Y0x1dQii0XRK5u0iSd-10">
          <mxGeometry x="22" y="10" width="38" height="50" as="geometry" />
        </mxCell>
        <mxCell id="g7Y0x1dQii0XRK5u0iSd-14" value="SSO前端" style="text;html=1;align=center;verticalAlign=middle;resizable=0;points=[];autosize=1;strokeColor=none;fillColor=none;" vertex="1" parent="1">
          <mxGeometry x="331" y="261" width="70" height="30" as="geometry" />
        </mxCell>
        <mxCell id="g7Y0x1dQii0XRK5u0iSd-15" value="" style="group" vertex="1" connectable="0" parent="1">
          <mxGeometry x="600" y="356" width="170" height="70" as="geometry" />
        </mxCell>
        <mxCell id="g7Y0x1dQii0XRK5u0iSd-16" value="..." style="whiteSpace=wrap;html=1;" vertex="1" parent="g7Y0x1dQii0XRK5u0iSd-15">
          <mxGeometry width="170" height="70" as="geometry" />
        </mxCell>
        <mxCell id="g7Y0x1dQii0XRK5u0iSd-17" value="" style="sketch=0;aspect=fixed;pointerEvents=1;shadow=0;dashed=0;html=1;strokeColor=none;labelPosition=center;verticalLabelPosition=bottom;verticalAlign=top;align=center;fillColor=#00188D;shape=mxgraph.mscae.enterprise.database_server" vertex="1" parent="g7Y0x1dQii0XRK5u0iSd-15">
          <mxGeometry x="10" y="12" width="38" height="50" as="geometry" />
        </mxCell>
        <mxCell id="g7Y0x1dQii0XRK5u0iSd-18" value="" style="sketch=0;aspect=fixed;pointerEvents=1;shadow=0;dashed=0;html=1;strokeColor=none;labelPosition=center;verticalLabelPosition=bottom;verticalAlign=top;align=center;fillColor=#00188D;shape=mxgraph.mscae.enterprise.database_server" vertex="1" parent="g7Y0x1dQii0XRK5u0iSd-15">
          <mxGeometry x="120" y="12" width="38" height="50" as="geometry" />
        </mxCell>
        <mxCell id="g7Y0x1dQii0XRK5u0iSd-19" value="SSO后端" style="text;html=1;align=center;verticalAlign=middle;resizable=0;points=[];autosize=1;strokeColor=none;fillColor=none;" vertex="1" parent="1">
          <mxGeometry x="650" y="330" width="70" height="30" as="geometry" />
        </mxCell>
        <mxCell id="g7Y0x1dQii0XRK5u0iSd-20" value="oss" style="image;sketch=0;aspect=fixed;html=1;points=[];align=center;fontSize=12;image=img/lib/mscae/AzureFXTEdgeFiler.svg;" vertex="1" parent="1">
          <mxGeometry x="740" y="500" width="50" height="50" as="geometry" />
        </mxCell>
        <mxCell id="g7Y0x1dQii0XRK5u0iSd-21" style="edgeStyle=orthogonalEdgeStyle;rounded=0;orthogonalLoop=1;jettySize=auto;html=1;entryX=0.588;entryY=0.06;entryDx=0;entryDy=0;entryPerimeter=0;" edge="1" parent="1" source="g7Y0x1dQii0XRK5u0iSd-16" target="g7Y0x1dQii0XRK5u0iSd-8">
          <mxGeometry relative="1" as="geometry" />
        </mxCell>
        <mxCell id="g7Y0x1dQii0XRK5u0iSd-22" style="edgeStyle=orthogonalEdgeStyle;rounded=0;orthogonalLoop=1;jettySize=auto;html=1;" edge="1" parent="1" source="g7Y0x1dQii0XRK5u0iSd-16" target="g7Y0x1dQii0XRK5u0iSd-9">
          <mxGeometry relative="1" as="geometry" />
        </mxCell>
        <mxCell id="g7Y0x1dQii0XRK5u0iSd-23" style="edgeStyle=orthogonalEdgeStyle;rounded=0;orthogonalLoop=1;jettySize=auto;html=1;entryX=0.447;entryY=0.047;entryDx=0;entryDy=0;entryPerimeter=0;" edge="1" parent="1" source="g7Y0x1dQii0XRK5u0iSd-16" target="g7Y0x1dQii0XRK5u0iSd-20">
          <mxGeometry relative="1" as="geometry" />
        </mxCell>
        <mxCell id="g7Y0x1dQii0XRK5u0iSd-24" style="edgeStyle=orthogonalEdgeStyle;rounded=0;orthogonalLoop=1;jettySize=auto;html=1;entryX=0;entryY=0.476;entryDx=0;entryDy=0;entryPerimeter=0;" edge="1" parent="1" source="g7Y0x1dQii0XRK5u0iSd-2" target="g7Y0x1dQii0XRK5u0iSd-5">
          <mxGeometry relative="1" as="geometry" />
        </mxCell>
        <mxCell id="g7Y0x1dQii0XRK5u0iSd-25" style="edgeStyle=orthogonalEdgeStyle;rounded=0;orthogonalLoop=1;jettySize=auto;html=1;entryX=0;entryY=0.471;entryDx=0;entryDy=0;entryPerimeter=0;" edge="1" parent="1" source="g7Y0x1dQii0XRK5u0iSd-3" target="g7Y0x1dQii0XRK5u0iSd-5">
          <mxGeometry relative="1" as="geometry" />
        </mxCell>
        <mxCell id="g7Y0x1dQii0XRK5u0iSd-26" style="edgeStyle=orthogonalEdgeStyle;rounded=0;orthogonalLoop=1;jettySize=auto;html=1;" edge="1" parent="1" source="g7Y0x1dQii0XRK5u0iSd-11" target="g7Y0x1dQii0XRK5u0iSd-7">
          <mxGeometry relative="1" as="geometry" />
        </mxCell>
        <mxCell id="g7Y0x1dQii0XRK5u0iSd-27" value="私有云" style="text;html=1;align=center;verticalAlign=middle;resizable=0;points=[];autosize=1;strokeColor=none;fillColor=none;" vertex="1" parent="1">
          <mxGeometry x="568" y="160" width="60" height="30" as="geometry" />
        </mxCell>
      </root>
    </mxGraphModel>
  </diagram>
  <diagram id="cjtJZoZ6VadZ5LHB4yPI" name="sso-design">
    <mxGraphModel dx="1427" dy="904" grid="1" gridSize="10" guides="1" tooltips="1" connect="1" arrows="1" fold="1" page="1" pageScale="1" pageWidth="850" pageHeight="1100" math="0" shadow="0">
      <root>
        <mxCell id="0" />
        <mxCell id="1" parent="0" />
        <mxCell id="fiHVySkNAZGi7D2KYSdO-1" value="HR" style="sketch=0;aspect=fixed;pointerEvents=1;shadow=0;dashed=0;html=1;strokeColor=none;labelPosition=center;verticalLabelPosition=bottom;verticalAlign=top;align=center;fillColor=#00188D;shape=mxgraph.mscae.enterprise.database_server" vertex="1" parent="1">
          <mxGeometry x="67" y="460" width="38" height="50" as="geometry" />
        </mxCell>
        <mxCell id="fiHVySkNAZGi7D2KYSdO-2" style="edgeStyle=orthogonalEdgeStyle;rounded=0;orthogonalLoop=1;jettySize=auto;html=1;" edge="1" parent="1" source="fiHVySkNAZGi7D2KYSdO-4" target="fiHVySkNAZGi7D2KYSdO-11">
          <mxGeometry relative="1" as="geometry" />
        </mxCell>
        <mxCell id="fiHVySkNAZGi7D2KYSdO-3" value="密码校验&amp;amp;Token" style="edgeLabel;html=1;align=center;verticalAlign=middle;resizable=0;points=[];" vertex="1" connectable="0" parent="fiHVySkNAZGi7D2KYSdO-2">
          <mxGeometry x="-0.3961" y="-2" relative="1" as="geometry">
            <mxPoint x="44" y="-2" as="offset" />
          </mxGeometry>
        </mxCell>
        <mxCell id="fiHVySkNAZGi7D2KYSdO-4" value="SSO Back" style="sketch=0;aspect=fixed;pointerEvents=1;shadow=0;dashed=0;html=1;strokeColor=none;labelPosition=center;verticalLabelPosition=bottom;verticalAlign=top;align=center;fillColor=#00188D;shape=mxgraph.mscae.enterprise.database_server" vertex="1" parent="1">
          <mxGeometry x="193" y="580" width="38" height="50" as="geometry" />
        </mxCell>
        <mxCell id="fiHVySkNAZGi7D2KYSdO-5" value="全量用户数据" style="image;sketch=0;aspect=fixed;html=1;points=[];align=center;fontSize=12;image=img/lib/mscae/AzureFXTEdgeFiler.svg;" vertex="1" parent="1">
          <mxGeometry x="187" y="460" width="50" height="50" as="geometry" />
        </mxCell>
        <mxCell id="fiHVySkNAZGi7D2KYSdO-6" style="edgeStyle=orthogonalEdgeStyle;rounded=0;orthogonalLoop=1;jettySize=auto;html=1;entryX=-0.049;entryY=0.506;entryDx=0;entryDy=0;entryPerimeter=0;" edge="1" parent="1" source="fiHVySkNAZGi7D2KYSdO-1" target="fiHVySkNAZGi7D2KYSdO-5">
          <mxGeometry relative="1" as="geometry" />
        </mxCell>
        <mxCell id="fiHVySkNAZGi7D2KYSdO-7" value="PUSH" style="edgeLabel;html=1;align=center;verticalAlign=middle;resizable=0;points=[];" vertex="1" connectable="0" parent="fiHVySkNAZGi7D2KYSdO-6">
          <mxGeometry x="-0.038" y="1" relative="1" as="geometry">
            <mxPoint x="1" as="offset" />
          </mxGeometry>
        </mxCell>
        <mxCell id="fiHVySkNAZGi7D2KYSdO-8" style="edgeStyle=orthogonalEdgeStyle;rounded=0;orthogonalLoop=1;jettySize=auto;html=1;entryX=0.5;entryY=0;entryDx=0;entryDy=0;entryPerimeter=0;" edge="1" parent="1" source="fiHVySkNAZGi7D2KYSdO-5" target="fiHVySkNAZGi7D2KYSdO-4">
          <mxGeometry relative="1" as="geometry" />
        </mxCell>
        <mxCell id="fiHVySkNAZGi7D2KYSdO-9" value="PULL" style="edgeLabel;html=1;align=center;verticalAlign=middle;resizable=0;points=[];" vertex="1" connectable="0" parent="fiHVySkNAZGi7D2KYSdO-8">
          <mxGeometry x="0.1363" y="1" relative="1" as="geometry">
            <mxPoint as="offset" />
          </mxGeometry>
        </mxCell>
        <mxCell id="fiHVySkNAZGi7D2KYSdO-10" value="用户中心" style="sketch=0;aspect=fixed;pointerEvents=1;shadow=0;dashed=0;html=1;strokeColor=none;labelPosition=center;verticalLabelPosition=bottom;verticalAlign=top;align=center;fillColor=#00188D;shape=mxgraph.mscae.enterprise.database_server" vertex="1" parent="1">
          <mxGeometry x="307" y="460" width="38" height="50" as="geometry" />
        </mxCell>
        <mxCell id="fiHVySkNAZGi7D2KYSdO-11" value="安全中心" style="sketch=0;aspect=fixed;pointerEvents=1;shadow=0;dashed=0;html=1;strokeColor=none;labelPosition=center;verticalLabelPosition=bottom;verticalAlign=top;align=center;fillColor=#00188D;shape=mxgraph.mscae.enterprise.database_server" vertex="1" parent="1">
          <mxGeometry x="387" y="460" width="38" height="50" as="geometry" />
        </mxCell>
        <mxCell id="fiHVySkNAZGi7D2KYSdO-12" style="edgeStyle=orthogonalEdgeStyle;rounded=0;orthogonalLoop=1;jettySize=auto;html=1;" edge="1" parent="1" source="fiHVySkNAZGi7D2KYSdO-14" target="fiHVySkNAZGi7D2KYSdO-4">
          <mxGeometry relative="1" as="geometry" />
        </mxCell>
        <mxCell id="fiHVySkNAZGi7D2KYSdO-13" value="Login" style="edgeLabel;html=1;align=center;verticalAlign=middle;resizable=0;points=[];" vertex="1" connectable="0" parent="fiHVySkNAZGi7D2KYSdO-12">
          <mxGeometry x="-0.0452" y="-5" relative="1" as="geometry">
            <mxPoint as="offset" />
          </mxGeometry>
        </mxCell>
        <mxCell id="fiHVySkNAZGi7D2KYSdO-14" value="SSO Web" style="sketch=0;aspect=fixed;pointerEvents=1;shadow=0;dashed=0;html=1;strokeColor=none;labelPosition=center;verticalLabelPosition=bottom;verticalAlign=top;align=center;fillColor=#00188D;shape=mxgraph.mscae.enterprise.web_server" vertex="1" parent="1">
          <mxGeometry x="193" y="700" width="38" height="50" as="geometry" />
        </mxCell>
        <mxCell id="fiHVySkNAZGi7D2KYSdO-15" style="edgeStyle=orthogonalEdgeStyle;rounded=0;orthogonalLoop=1;jettySize=auto;html=1;" edge="1" parent="1">
          <mxGeometry relative="1" as="geometry">
            <mxPoint x="237" y="605.0285714285715" as="sourcePoint" />
            <mxPoint x="307" y="485" as="targetPoint" />
            <Array as="points">
              <mxPoint x="267" y="605" />
              <mxPoint x="267" y="485" />
            </Array>
          </mxGeometry>
        </mxCell>
        <mxCell id="fiHVySkNAZGi7D2KYSdO-16" value="用户校验" style="edgeLabel;html=1;align=center;verticalAlign=middle;resizable=0;points=[];" vertex="1" connectable="0" parent="fiHVySkNAZGi7D2KYSdO-15">
          <mxGeometry x="-0.0076" y="-2" relative="1" as="geometry">
            <mxPoint as="offset" />
          </mxGeometry>
        </mxCell>
        <mxCell id="fiHVySkNAZGi7D2KYSdO-17" value="SSO Web" style="sketch=0;aspect=fixed;pointerEvents=1;shadow=0;dashed=0;html=1;strokeColor=none;labelPosition=center;verticalLabelPosition=bottom;verticalAlign=top;align=center;fillColor=#00188D;shape=mxgraph.mscae.enterprise.web_server" vertex="1" parent="1">
          <mxGeometry x="160" y="830" width="38" height="50" as="geometry" />
        </mxCell>
        <mxCell id="fiHVySkNAZGi7D2KYSdO-18" value="SSO Back" style="sketch=0;aspect=fixed;pointerEvents=1;shadow=0;dashed=0;html=1;strokeColor=none;labelPosition=center;verticalLabelPosition=bottom;verticalAlign=top;align=center;fillColor=#00188D;shape=mxgraph.mscae.enterprise.database_server" vertex="1" parent="1">
          <mxGeometry x="340" y="830" width="38" height="50" as="geometry" />
        </mxCell>
        <mxCell id="fiHVySkNAZGi7D2KYSdO-19" style="edgeStyle=orthogonalEdgeStyle;rounded=0;orthogonalLoop=1;jettySize=auto;html=1;entryX=0;entryY=0.5;entryDx=0;entryDy=0;entryPerimeter=0;" edge="1" parent="1" source="fiHVySkNAZGi7D2KYSdO-17" target="fiHVySkNAZGi7D2KYSdO-18">
          <mxGeometry relative="1" as="geometry" />
        </mxCell>
        <mxCell id="fiHVySkNAZGi7D2KYSdO-20" value="系统访问权限申请" style="edgeLabel;html=1;align=center;verticalAlign=middle;resizable=0;points=[];" vertex="1" connectable="0" parent="fiHVySkNAZGi7D2KYSdO-19">
          <mxGeometry x="-0.1018" y="-2" relative="1" as="geometry">
            <mxPoint as="offset" />
          </mxGeometry>
        </mxCell>
        <mxCell id="fiHVySkNAZGi7D2KYSdO-21" value="" style="sketch=0;aspect=fixed;pointerEvents=1;shadow=0;dashed=0;html=1;strokeColor=none;labelPosition=center;verticalLabelPosition=bottom;verticalAlign=top;align=center;fillColor=#00188D;shape=mxgraph.azure.user" vertex="1" parent="1">
          <mxGeometry x="50" y="830" width="47" height="50" as="geometry" />
        </mxCell>
        <mxCell id="fiHVySkNAZGi7D2KYSdO-22" style="edgeStyle=orthogonalEdgeStyle;rounded=0;orthogonalLoop=1;jettySize=auto;html=1;entryX=0;entryY=0.5;entryDx=0;entryDy=0;entryPerimeter=0;" edge="1" parent="1" source="fiHVySkNAZGi7D2KYSdO-21" target="fiHVySkNAZGi7D2KYSdO-17">
          <mxGeometry relative="1" as="geometry" />
        </mxCell>
        <mxCell id="fiHVySkNAZGi7D2KYSdO-23" value="SSO Web" style="sketch=0;aspect=fixed;pointerEvents=1;shadow=0;dashed=0;html=1;strokeColor=none;labelPosition=center;verticalLabelPosition=bottom;verticalAlign=top;align=center;fillColor=#00188D;shape=mxgraph.mscae.enterprise.web_server" vertex="1" parent="1">
          <mxGeometry x="160" y="960" width="38" height="50" as="geometry" />
        </mxCell>
        <mxCell id="fiHVySkNAZGi7D2KYSdO-24" style="edgeStyle=orthogonalEdgeStyle;rounded=0;orthogonalLoop=1;jettySize=auto;html=1;entryX=0;entryY=0.5;entryDx=0;entryDy=0;entryPerimeter=0;" edge="1" parent="1" source="fiHVySkNAZGi7D2KYSdO-28" target="fiHVySkNAZGi7D2KYSdO-35">
          <mxGeometry relative="1" as="geometry">
            <mxPoint x="425" y="985" as="targetPoint" />
          </mxGeometry>
        </mxCell>
        <mxCell id="fiHVySkNAZGi7D2KYSdO-25" value="YES" style="edgeLabel;html=1;align=center;verticalAlign=middle;resizable=0;points=[];" vertex="1" connectable="0" parent="fiHVySkNAZGi7D2KYSdO-24">
          <mxGeometry x="0.0456" relative="1" as="geometry">
            <mxPoint x="-10" as="offset" />
          </mxGeometry>
        </mxCell>
        <mxCell id="fiHVySkNAZGi7D2KYSdO-26" style="edgeStyle=orthogonalEdgeStyle;rounded=0;orthogonalLoop=1;jettySize=auto;html=1;exitX=0.5;exitY=1;exitDx=0;exitDy=0;exitPerimeter=0;entryX=0.5;entryY=1;entryDx=0;entryDy=0;entryPerimeter=0;" edge="1" parent="1" source="fiHVySkNAZGi7D2KYSdO-28" target="fiHVySkNAZGi7D2KYSdO-23">
          <mxGeometry relative="1" as="geometry">
            <Array as="points">
              <mxPoint x="359" y="1050" />
              <mxPoint x="179" y="1050" />
            </Array>
          </mxGeometry>
        </mxCell>
        <mxCell id="fiHVySkNAZGi7D2KYSdO-27" value="NO" style="edgeLabel;html=1;align=center;verticalAlign=middle;resizable=0;points=[];" vertex="1" connectable="0" parent="fiHVySkNAZGi7D2KYSdO-26">
          <mxGeometry x="0.0884" y="1" relative="1" as="geometry">
            <mxPoint as="offset" />
          </mxGeometry>
        </mxCell>
        <mxCell id="fiHVySkNAZGi7D2KYSdO-28" value="SSO Back" style="sketch=0;aspect=fixed;pointerEvents=1;shadow=0;dashed=0;html=1;strokeColor=none;labelPosition=center;verticalLabelPosition=bottom;verticalAlign=top;align=center;fillColor=#00188D;shape=mxgraph.mscae.enterprise.database_server" vertex="1" parent="1">
          <mxGeometry x="340" y="960" width="38" height="50" as="geometry" />
        </mxCell>
        <mxCell id="fiHVySkNAZGi7D2KYSdO-29" style="edgeStyle=orthogonalEdgeStyle;rounded=0;orthogonalLoop=1;jettySize=auto;html=1;entryX=0;entryY=0.5;entryDx=0;entryDy=0;entryPerimeter=0;" edge="1" parent="1" source="fiHVySkNAZGi7D2KYSdO-23" target="fiHVySkNAZGi7D2KYSdO-28">
          <mxGeometry relative="1" as="geometry" />
        </mxCell>
        <mxCell id="fiHVySkNAZGi7D2KYSdO-30" value="系统访问权限审批" style="edgeLabel;html=1;align=center;verticalAlign=middle;resizable=0;points=[];" vertex="1" connectable="0" parent="fiHVySkNAZGi7D2KYSdO-29">
          <mxGeometry x="-0.1018" y="-2" relative="1" as="geometry">
            <mxPoint as="offset" />
          </mxGeometry>
        </mxCell>
        <mxCell id="fiHVySkNAZGi7D2KYSdO-31" value="" style="sketch=0;aspect=fixed;pointerEvents=1;shadow=0;dashed=0;html=1;strokeColor=none;labelPosition=center;verticalLabelPosition=bottom;verticalAlign=top;align=center;shape=mxgraph.mscae.enterprise.user_permissions;fillColor=#0078D7;" vertex="1" parent="1">
          <mxGeometry x="50" y="960" width="47" height="50" as="geometry" />
        </mxCell>
        <mxCell id="fiHVySkNAZGi7D2KYSdO-32" style="edgeStyle=orthogonalEdgeStyle;rounded=0;orthogonalLoop=1;jettySize=auto;html=1;entryX=0;entryY=0.5;entryDx=0;entryDy=0;entryPerimeter=0;" edge="1" parent="1" source="fiHVySkNAZGi7D2KYSdO-31" target="fiHVySkNAZGi7D2KYSdO-23">
          <mxGeometry relative="1" as="geometry" />
        </mxCell>
        <mxCell id="fiHVySkNAZGi7D2KYSdO-33" style="edgeStyle=orthogonalEdgeStyle;rounded=0;orthogonalLoop=1;jettySize=auto;html=1;exitX=0.5;exitY=0;exitDx=0;exitDy=0;exitPerimeter=0;" edge="1" parent="1" source="fiHVySkNAZGi7D2KYSdO-35" target="fiHVySkNAZGi7D2KYSdO-44">
          <mxGeometry relative="1" as="geometry" />
        </mxCell>
        <mxCell id="fiHVySkNAZGi7D2KYSdO-34" value="Token校验" style="edgeLabel;html=1;align=center;verticalAlign=middle;resizable=0;points=[];" vertex="1" connectable="0" parent="fiHVySkNAZGi7D2KYSdO-33">
          <mxGeometry x="-0.1589" y="1" relative="1" as="geometry">
            <mxPoint as="offset" />
          </mxGeometry>
        </mxCell>
        <mxCell id="fiHVySkNAZGi7D2KYSdO-35" value="财管" style="sketch=0;aspect=fixed;pointerEvents=1;shadow=0;dashed=0;html=1;strokeColor=none;labelPosition=center;verticalLabelPosition=bottom;verticalAlign=top;align=center;fillColor=#00188D;shape=mxgraph.mscae.enterprise.database_server" vertex="1" parent="1">
          <mxGeometry x="560" y="960" width="38" height="50" as="geometry" />
        </mxCell>
        <mxCell id="fiHVySkNAZGi7D2KYSdO-36" style="edgeStyle=orthogonalEdgeStyle;rounded=0;orthogonalLoop=1;jettySize=auto;html=1;entryX=0;entryY=0.5;entryDx=0;entryDy=0;" edge="1" parent="1" source="fiHVySkNAZGi7D2KYSdO-37" target="fiHVySkNAZGi7D2KYSdO-45">
          <mxGeometry relative="1" as="geometry" />
        </mxCell>
        <mxCell id="fiHVySkNAZGi7D2KYSdO-37" value="财管Web" style="sketch=0;aspect=fixed;pointerEvents=1;shadow=0;dashed=0;html=1;strokeColor=none;labelPosition=center;verticalLabelPosition=bottom;verticalAlign=top;align=center;fillColor=#00188D;shape=mxgraph.mscae.enterprise.web_server" vertex="1" parent="1">
          <mxGeometry x="700" y="960" width="38" height="50" as="geometry" />
        </mxCell>
        <mxCell id="fiHVySkNAZGi7D2KYSdO-38" style="edgeStyle=orthogonalEdgeStyle;rounded=0;orthogonalLoop=1;jettySize=auto;html=1;entryX=0;entryY=0.5;entryDx=0;entryDy=0;entryPerimeter=0;" edge="1" parent="1" source="fiHVySkNAZGi7D2KYSdO-35" target="fiHVySkNAZGi7D2KYSdO-37">
          <mxGeometry relative="1" as="geometry" />
        </mxCell>
        <mxCell id="fiHVySkNAZGi7D2KYSdO-39" value="Redirect" style="edgeLabel;html=1;align=center;verticalAlign=middle;resizable=0;points=[];" vertex="1" connectable="0" parent="fiHVySkNAZGi7D2KYSdO-38">
          <mxGeometry x="-0.0924" y="-1" relative="1" as="geometry">
            <mxPoint as="offset" />
          </mxGeometry>
        </mxCell>
        <mxCell id="fiHVySkNAZGi7D2KYSdO-40" value="POST" style="swimlane;fontStyle=1;align=center;verticalAlign=top;childLayout=stackLayout;horizontal=1;startSize=26;horizontalStack=0;resizeParent=1;resizeParentMax=0;resizeLast=0;collapsible=1;marginBottom=0;whiteSpace=wrap;html=1;fontSize=8;" vertex="1" parent="1">
          <mxGeometry x="410" y="1010" width="120" height="86" as="geometry">
            <mxRectangle x="378" y="1040" width="70" height="30" as="alternateBounds" />
          </mxGeometry>
        </mxCell>
        <mxCell id="fiHVySkNAZGi7D2KYSdO-41" value="Token" style="text;strokeColor=none;fillColor=none;align=left;verticalAlign=top;spacingLeft=4;spacingRight=4;overflow=hidden;rotatable=0;points=[[0,0.5],[1,0.5]];portConstraint=eastwest;whiteSpace=wrap;html=1;fontSize=8;" vertex="1" parent="fiHVySkNAZGi7D2KYSdO-40">
          <mxGeometry y="26" width="120" height="26" as="geometry" />
        </mxCell>
        <mxCell id="fiHVySkNAZGi7D2KYSdO-42" value="" style="line;strokeWidth=1;fillColor=none;align=left;verticalAlign=middle;spacingTop=-1;spacingLeft=3;spacingRight=3;rotatable=0;labelPosition=right;points=[];portConstraint=eastwest;strokeColor=inherit;" vertex="1" parent="fiHVySkNAZGi7D2KYSdO-40">
          <mxGeometry y="52" width="120" height="8" as="geometry" />
        </mxCell>
        <mxCell id="fiHVySkNAZGi7D2KYSdO-43" value="用户信息：工号、其他信息？" style="text;strokeColor=none;fillColor=none;align=left;verticalAlign=top;spacingLeft=4;spacingRight=4;overflow=hidden;rotatable=0;points=[[0,0.5],[1,0.5]];portConstraint=eastwest;whiteSpace=wrap;html=1;fontSize=8;" vertex="1" parent="fiHVySkNAZGi7D2KYSdO-40">
          <mxGeometry y="60" width="120" height="26" as="geometry" />
        </mxCell>
        <mxCell id="fiHVySkNAZGi7D2KYSdO-44" value="安全中心" style="sketch=0;aspect=fixed;pointerEvents=1;shadow=0;dashed=0;html=1;strokeColor=none;labelPosition=center;verticalLabelPosition=bottom;verticalAlign=top;align=center;fillColor=#00188D;shape=mxgraph.mscae.enterprise.database_server" vertex="1" parent="1">
          <mxGeometry x="560" y="840" width="38" height="50" as="geometry" />
        </mxCell>
        <mxCell id="fiHVySkNAZGi7D2KYSdO-45" value="用户配置：所属机构、部门、岗位、权限等其他信息&lt;div style=&quot;font-size: 9px;&quot;&gt;用户保存&lt;/div&gt;" style="html=1;whiteSpace=wrap;fontSize=9;align=left;" vertex="1" parent="1">
          <mxGeometry x="780" y="960" width="110" height="50" as="geometry" />
        </mxCell>
        <mxCell id="fiHVySkNAZGi7D2KYSdO-46" value="SSO Web" style="sketch=0;aspect=fixed;pointerEvents=1;shadow=0;dashed=0;html=1;strokeColor=none;labelPosition=center;verticalLabelPosition=bottom;verticalAlign=top;align=center;fillColor=#00188D;shape=mxgraph.mscae.enterprise.web_server" vertex="1" parent="1">
          <mxGeometry x="1195" y="538" width="38" height="50" as="geometry" />
        </mxCell>
        <mxCell id="fiHVySkNAZGi7D2KYSdO-47" style="edgeStyle=orthogonalEdgeStyle;rounded=0;orthogonalLoop=1;jettySize=auto;html=1;" edge="1" parent="1" source="fiHVySkNAZGi7D2KYSdO-53" target="fiHVySkNAZGi7D2KYSdO-59">
          <mxGeometry relative="1" as="geometry">
            <Array as="points">
              <mxPoint x="1354" y="488" />
              <mxPoint x="1275" y="488" />
            </Array>
          </mxGeometry>
        </mxCell>
        <mxCell id="fiHVySkNAZGi7D2KYSdO-48" value="用户校验" style="edgeLabel;html=1;align=center;verticalAlign=middle;resizable=0;points=[];" vertex="1" connectable="0" parent="fiHVySkNAZGi7D2KYSdO-47">
          <mxGeometry x="0.3771" y="-4" relative="1" as="geometry">
            <mxPoint x="-4" y="-10" as="offset" />
          </mxGeometry>
        </mxCell>
        <mxCell id="fiHVySkNAZGi7D2KYSdO-49" style="edgeStyle=orthogonalEdgeStyle;rounded=0;orthogonalLoop=1;jettySize=auto;html=1;exitX=0.5;exitY=0;exitDx=0;exitDy=0;exitPerimeter=0;" edge="1" parent="1" source="fiHVySkNAZGi7D2KYSdO-53" target="fiHVySkNAZGi7D2KYSdO-60">
          <mxGeometry relative="1" as="geometry">
            <Array as="points">
              <mxPoint x="1354" y="488" />
              <mxPoint x="1435" y="488" />
            </Array>
          </mxGeometry>
        </mxCell>
        <mxCell id="fiHVySkNAZGi7D2KYSdO-50" value="密码校验&amp;amp;Token" style="edgeLabel;html=1;align=center;verticalAlign=middle;resizable=0;points=[];" vertex="1" connectable="0" parent="fiHVySkNAZGi7D2KYSdO-49">
          <mxGeometry x="0.4535" y="3" relative="1" as="geometry">
            <mxPoint x="5" y="-7" as="offset" />
          </mxGeometry>
        </mxCell>
        <mxCell id="fiHVySkNAZGi7D2KYSdO-51" style="edgeStyle=orthogonalEdgeStyle;rounded=0;orthogonalLoop=1;jettySize=auto;html=1;" edge="1" parent="1" source="fiHVySkNAZGi7D2KYSdO-53" target="fiHVySkNAZGi7D2KYSdO-71">
          <mxGeometry relative="1" as="geometry" />
        </mxCell>
        <mxCell id="fiHVySkNAZGi7D2KYSdO-52" value="SSO个人首页" style="edgeLabel;html=1;align=center;verticalAlign=middle;resizable=0;points=[];" vertex="1" connectable="0" parent="fiHVySkNAZGi7D2KYSdO-51">
          <mxGeometry x="0.1057" y="-1" relative="1" as="geometry">
            <mxPoint as="offset" />
          </mxGeometry>
        </mxCell>
        <mxCell id="fiHVySkNAZGi7D2KYSdO-53" value="SSO Back" style="sketch=0;aspect=fixed;pointerEvents=1;shadow=0;dashed=0;html=1;strokeColor=none;labelPosition=center;verticalLabelPosition=bottom;verticalAlign=top;align=center;fillColor=#00188D;shape=mxgraph.mscae.enterprise.database_server" vertex="1" parent="1">
          <mxGeometry x="1335" y="538" width="38" height="50" as="geometry" />
        </mxCell>
        <mxCell id="fiHVySkNAZGi7D2KYSdO-54" style="edgeStyle=orthogonalEdgeStyle;rounded=0;orthogonalLoop=1;jettySize=auto;html=1;entryX=0;entryY=0.5;entryDx=0;entryDy=0;entryPerimeter=0;" edge="1" parent="1" source="fiHVySkNAZGi7D2KYSdO-46" target="fiHVySkNAZGi7D2KYSdO-53">
          <mxGeometry relative="1" as="geometry" />
        </mxCell>
        <mxCell id="fiHVySkNAZGi7D2KYSdO-55" value="" style="sketch=0;aspect=fixed;pointerEvents=1;shadow=0;dashed=0;html=1;strokeColor=none;labelPosition=center;verticalLabelPosition=bottom;verticalAlign=top;align=center;fillColor=#00188D;shape=mxgraph.azure.user" vertex="1" parent="1">
          <mxGeometry x="1085" y="538" width="47" height="50" as="geometry" />
        </mxCell>
        <mxCell id="fiHVySkNAZGi7D2KYSdO-56" style="edgeStyle=orthogonalEdgeStyle;rounded=0;orthogonalLoop=1;jettySize=auto;html=1;entryX=0;entryY=0.5;entryDx=0;entryDy=0;entryPerimeter=0;" edge="1" parent="1" source="fiHVySkNAZGi7D2KYSdO-55" target="fiHVySkNAZGi7D2KYSdO-46">
          <mxGeometry relative="1" as="geometry" />
        </mxCell>
        <mxCell id="fiHVySkNAZGi7D2KYSdO-57" value="Login" style="edgeLabel;html=1;align=center;verticalAlign=middle;resizable=0;points=[];" vertex="1" connectable="0" parent="fiHVySkNAZGi7D2KYSdO-56">
          <mxGeometry x="0.3257" y="-4" relative="1" as="geometry">
            <mxPoint x="-13" y="-3" as="offset" />
          </mxGeometry>
        </mxCell>
        <mxCell id="fiHVySkNAZGi7D2KYSdO-58" value="" style="edgeStyle=none;orthogonalLoop=1;jettySize=auto;html=1;rounded=0;shape=link;" edge="1" parent="1">
          <mxGeometry width="80" relative="1" as="geometry">
            <mxPoint x="960" y="350" as="sourcePoint" />
            <mxPoint x="960" y="1280" as="targetPoint" />
            <Array as="points" />
          </mxGeometry>
        </mxCell>
        <mxCell id="fiHVySkNAZGi7D2KYSdO-59" value="用户中心" style="sketch=0;aspect=fixed;pointerEvents=1;shadow=0;dashed=0;html=1;strokeColor=none;labelPosition=center;verticalLabelPosition=bottom;verticalAlign=top;align=center;fillColor=#00188D;shape=mxgraph.mscae.enterprise.database_server" vertex="1" parent="1">
          <mxGeometry x="1258" y="392.5" width="38" height="50" as="geometry" />
        </mxCell>
        <mxCell id="fiHVySkNAZGi7D2KYSdO-60" value="安全中心" style="sketch=0;aspect=fixed;pointerEvents=1;shadow=0;dashed=0;html=1;strokeColor=none;labelPosition=center;verticalLabelPosition=bottom;verticalAlign=top;align=center;fillColor=#00188D;shape=mxgraph.mscae.enterprise.database_server" vertex="1" parent="1">
          <mxGeometry x="1418" y="392.5" width="38" height="50" as="geometry" />
        </mxCell>
        <mxCell id="fiHVySkNAZGi7D2KYSdO-61" value="财管" style="sketch=0;aspect=fixed;pointerEvents=1;shadow=0;dashed=0;html=1;strokeColor=none;labelPosition=center;verticalLabelPosition=bottom;verticalAlign=top;align=center;fillColor=#00188D;shape=mxgraph.mscae.enterprise.database_server" vertex="1" parent="1">
          <mxGeometry x="1778" y="538" width="38" height="50" as="geometry" />
        </mxCell>
        <mxCell id="fiHVySkNAZGi7D2KYSdO-62" style="edgeStyle=orthogonalEdgeStyle;rounded=0;orthogonalLoop=1;jettySize=auto;html=1;entryX=0;entryY=0.5;entryDx=0;entryDy=0;entryPerimeter=0;exitX=1.018;exitY=0.521;exitDx=0;exitDy=0;exitPerimeter=0;" edge="1" parent="1" source="fiHVySkNAZGi7D2KYSdO-71" target="fiHVySkNAZGi7D2KYSdO-61">
          <mxGeometry relative="1" as="geometry">
            <mxPoint x="1645" y="538" as="sourcePoint" />
          </mxGeometry>
        </mxCell>
        <mxCell id="fiHVySkNAZGi7D2KYSdO-63" value="跳转" style="edgeLabel;html=1;align=center;verticalAlign=middle;resizable=0;points=[];" vertex="1" connectable="0" parent="fiHVySkNAZGi7D2KYSdO-62">
          <mxGeometry x="-0.0881" y="-2" relative="1" as="geometry">
            <mxPoint as="offset" />
          </mxGeometry>
        </mxCell>
        <mxCell id="fiHVySkNAZGi7D2KYSdO-64" style="edgeStyle=orthogonalEdgeStyle;rounded=0;orthogonalLoop=1;jettySize=auto;html=1;entryX=1.014;entryY=0.639;entryDx=0;entryDy=0;entryPerimeter=0;exitX=0.293;exitY=-0.031;exitDx=0;exitDy=0;exitPerimeter=0;" edge="1" parent="1" source="fiHVySkNAZGi7D2KYSdO-61" target="fiHVySkNAZGi7D2KYSdO-60">
          <mxGeometry relative="1" as="geometry">
            <Array as="points">
              <mxPoint x="1789" y="425" />
            </Array>
          </mxGeometry>
        </mxCell>
        <mxCell id="fiHVySkNAZGi7D2KYSdO-65" value="Token校验" style="edgeLabel;html=1;align=center;verticalAlign=middle;resizable=0;points=[];" vertex="1" connectable="0" parent="fiHVySkNAZGi7D2KYSdO-64">
          <mxGeometry x="-0.2078" y="2" relative="1" as="geometry">
            <mxPoint as="offset" />
          </mxGeometry>
        </mxCell>
        <mxCell id="fiHVySkNAZGi7D2KYSdO-66" value="财管个人首页" style="sketch=0;aspect=fixed;pointerEvents=1;shadow=0;dashed=0;html=1;strokeColor=none;labelPosition=center;verticalLabelPosition=bottom;verticalAlign=top;align=center;fillColor=#00188D;shape=mxgraph.mscae.enterprise.web_server" vertex="1" parent="1">
          <mxGeometry x="1908" y="538" width="38" height="50" as="geometry" />
        </mxCell>
        <mxCell id="fiHVySkNAZGi7D2KYSdO-67" style="edgeStyle=orthogonalEdgeStyle;rounded=0;orthogonalLoop=1;jettySize=auto;html=1;entryX=0;entryY=0.5;entryDx=0;entryDy=0;entryPerimeter=0;" edge="1" parent="1" source="fiHVySkNAZGi7D2KYSdO-61" target="fiHVySkNAZGi7D2KYSdO-66">
          <mxGeometry relative="1" as="geometry" />
        </mxCell>
        <mxCell id="fiHVySkNAZGi7D2KYSdO-68" value="Redirect" style="edgeLabel;html=1;align=center;verticalAlign=middle;resizable=0;points=[];" vertex="1" connectable="0" parent="fiHVySkNAZGi7D2KYSdO-67">
          <mxGeometry x="-0.048" y="-2" relative="1" as="geometry">
            <mxPoint as="offset" />
          </mxGeometry>
        </mxCell>
        <mxCell id="fiHVySkNAZGi7D2KYSdO-69" style="edgeStyle=orthogonalEdgeStyle;shape=link;rounded=0;orthogonalLoop=1;jettySize=auto;html=1;" edge="1" parent="1" source="fiHVySkNAZGi7D2KYSdO-70">
          <mxGeometry relative="1" as="geometry">
            <mxPoint x="1649.9999999999995" y="568" as="targetPoint" />
          </mxGeometry>
        </mxCell>
        <mxCell id="fiHVySkNAZGi7D2KYSdO-70" value="&lt;span style=&quot;text-wrap: nowrap; background-color: rgb(255, 255, 255);&quot;&gt;&lt;font style=&quot;font-size: 9px;&quot;&gt;Token&amp;amp;财管个人首页&lt;/font&gt;&lt;/span&gt;" style="rounded=0;whiteSpace=wrap;html=1;" vertex="1" parent="1">
          <mxGeometry x="1595" y="598" width="110" height="40" as="geometry" />
        </mxCell>
        <mxCell id="fiHVySkNAZGi7D2KYSdO-71" value="SSO Web" style="sketch=0;aspect=fixed;pointerEvents=1;shadow=0;dashed=0;html=1;strokeColor=none;labelPosition=center;verticalLabelPosition=bottom;verticalAlign=top;align=center;fillColor=#00188D;shape=mxgraph.mscae.enterprise.web_server" vertex="1" parent="1">
          <mxGeometry x="1505" y="538" width="38" height="50" as="geometry" />
        </mxCell>
        <mxCell id="fiHVySkNAZGi7D2KYSdO-72" value="SSO Web" style="sketch=0;aspect=fixed;pointerEvents=1;shadow=0;dashed=0;html=1;strokeColor=none;labelPosition=center;verticalLabelPosition=bottom;verticalAlign=top;align=center;fillColor=#00188D;shape=mxgraph.mscae.enterprise.web_server" vertex="1" parent="1">
          <mxGeometry x="114" y="1140" width="38" height="50" as="geometry" />
        </mxCell>
        <mxCell id="fiHVySkNAZGi7D2KYSdO-73" style="edgeStyle=orthogonalEdgeStyle;rounded=0;orthogonalLoop=1;jettySize=auto;html=1;entryX=0;entryY=0.5;entryDx=0;entryDy=0;entryPerimeter=0;" edge="1" parent="1" source="fiHVySkNAZGi7D2KYSdO-75" target="fiHVySkNAZGi7D2KYSdO-80">
          <mxGeometry relative="1" as="geometry">
            <mxPoint x="415" y="1165" as="targetPoint" />
          </mxGeometry>
        </mxCell>
        <mxCell id="fiHVySkNAZGi7D2KYSdO-74" value="YES" style="edgeLabel;html=1;align=center;verticalAlign=middle;resizable=0;points=[];" vertex="1" connectable="0" parent="fiHVySkNAZGi7D2KYSdO-73">
          <mxGeometry x="0.0456" relative="1" as="geometry">
            <mxPoint x="-10" as="offset" />
          </mxGeometry>
        </mxCell>
        <mxCell id="fiHVySkNAZGi7D2KYSdO-75" value="SSO Back" style="sketch=0;aspect=fixed;pointerEvents=1;shadow=0;dashed=0;html=1;strokeColor=none;labelPosition=center;verticalLabelPosition=bottom;verticalAlign=top;align=center;fillColor=#00188D;shape=mxgraph.mscae.enterprise.database_server" vertex="1" parent="1">
          <mxGeometry x="330" y="1140" width="38" height="50" as="geometry" />
        </mxCell>
        <mxCell id="fiHVySkNAZGi7D2KYSdO-76" style="edgeStyle=orthogonalEdgeStyle;rounded=0;orthogonalLoop=1;jettySize=auto;html=1;entryX=0;entryY=0.5;entryDx=0;entryDy=0;entryPerimeter=0;" edge="1" parent="1" source="fiHVySkNAZGi7D2KYSdO-72" target="fiHVySkNAZGi7D2KYSdO-75">
          <mxGeometry relative="1" as="geometry" />
        </mxCell>
        <mxCell id="fiHVySkNAZGi7D2KYSdO-77" value="新增/删除用户系统访问权限" style="edgeLabel;html=1;align=center;verticalAlign=middle;resizable=0;points=[];" vertex="1" connectable="0" parent="fiHVySkNAZGi7D2KYSdO-76">
          <mxGeometry x="-0.2598" y="1" relative="1" as="geometry">
            <mxPoint x="10" y="1" as="offset" />
          </mxGeometry>
        </mxCell>
        <mxCell id="fiHVySkNAZGi7D2KYSdO-78" value="" style="sketch=0;aspect=fixed;pointerEvents=1;shadow=0;dashed=0;html=1;strokeColor=none;labelPosition=center;verticalLabelPosition=bottom;verticalAlign=top;align=center;shape=mxgraph.mscae.enterprise.user_permissions;fillColor=#0078D7;" vertex="1" parent="1">
          <mxGeometry x="4" y="1140" width="47" height="50" as="geometry" />
        </mxCell>
        <mxCell id="fiHVySkNAZGi7D2KYSdO-79" style="edgeStyle=orthogonalEdgeStyle;rounded=0;orthogonalLoop=1;jettySize=auto;html=1;entryX=0;entryY=0.5;entryDx=0;entryDy=0;entryPerimeter=0;" edge="1" parent="1" source="fiHVySkNAZGi7D2KYSdO-78" target="fiHVySkNAZGi7D2KYSdO-72">
          <mxGeometry relative="1" as="geometry" />
        </mxCell>
        <mxCell id="fiHVySkNAZGi7D2KYSdO-80" value="财管" style="sketch=0;aspect=fixed;pointerEvents=1;shadow=0;dashed=0;html=1;strokeColor=none;labelPosition=center;verticalLabelPosition=bottom;verticalAlign=top;align=center;fillColor=#00188D;shape=mxgraph.mscae.enterprise.database_server" vertex="1" parent="1">
          <mxGeometry x="550" y="1140" width="38" height="50" as="geometry" />
        </mxCell>
        <mxCell id="fiHVySkNAZGi7D2KYSdO-81" style="edgeStyle=orthogonalEdgeStyle;rounded=0;orthogonalLoop=1;jettySize=auto;html=1;entryX=0;entryY=0.5;entryDx=0;entryDy=0;" edge="1" parent="1" source="fiHVySkNAZGi7D2KYSdO-82" target="fiHVySkNAZGi7D2KYSdO-89">
          <mxGeometry relative="1" as="geometry" />
        </mxCell>
        <mxCell id="fiHVySkNAZGi7D2KYSdO-82" value="财管Web" style="sketch=0;aspect=fixed;pointerEvents=1;shadow=0;dashed=0;html=1;strokeColor=none;labelPosition=center;verticalLabelPosition=bottom;verticalAlign=top;align=center;fillColor=#00188D;shape=mxgraph.mscae.enterprise.web_server" vertex="1" parent="1">
          <mxGeometry x="690" y="1140" width="38" height="50" as="geometry" />
        </mxCell>
        <mxCell id="fiHVySkNAZGi7D2KYSdO-83" style="edgeStyle=orthogonalEdgeStyle;rounded=0;orthogonalLoop=1;jettySize=auto;html=1;entryX=0;entryY=0.5;entryDx=0;entryDy=0;entryPerimeter=0;" edge="1" parent="1" source="fiHVySkNAZGi7D2KYSdO-80" target="fiHVySkNAZGi7D2KYSdO-82">
          <mxGeometry relative="1" as="geometry" />
        </mxCell>
        <mxCell id="fiHVySkNAZGi7D2KYSdO-84" value="Redirect" style="edgeLabel;html=1;align=center;verticalAlign=middle;resizable=0;points=[];" vertex="1" connectable="0" parent="fiHVySkNAZGi7D2KYSdO-83">
          <mxGeometry x="-0.0924" y="-1" relative="1" as="geometry">
            <mxPoint as="offset" />
          </mxGeometry>
        </mxCell>
        <mxCell id="fiHVySkNAZGi7D2KYSdO-85" value="POST" style="swimlane;fontStyle=1;align=center;verticalAlign=top;childLayout=stackLayout;horizontal=1;startSize=26;horizontalStack=0;resizeParent=1;resizeParentMax=0;resizeLast=0;collapsible=1;marginBottom=0;whiteSpace=wrap;html=1;fontSize=8;" vertex="1" parent="1">
          <mxGeometry x="400" y="1190" width="120" height="86" as="geometry">
            <mxRectangle x="378" y="1040" width="70" height="30" as="alternateBounds" />
          </mxGeometry>
        </mxCell>
        <mxCell id="fiHVySkNAZGi7D2KYSdO-86" value="Token" style="text;strokeColor=none;fillColor=none;align=left;verticalAlign=top;spacingLeft=4;spacingRight=4;overflow=hidden;rotatable=0;points=[[0,0.5],[1,0.5]];portConstraint=eastwest;whiteSpace=wrap;html=1;fontSize=8;" vertex="1" parent="fiHVySkNAZGi7D2KYSdO-85">
          <mxGeometry y="26" width="120" height="26" as="geometry" />
        </mxCell>
        <mxCell id="fiHVySkNAZGi7D2KYSdO-87" value="" style="line;strokeWidth=1;fillColor=none;align=left;verticalAlign=middle;spacingTop=-1;spacingLeft=3;spacingRight=3;rotatable=0;labelPosition=right;points=[];portConstraint=eastwest;strokeColor=inherit;" vertex="1" parent="fiHVySkNAZGi7D2KYSdO-85">
          <mxGeometry y="52" width="120" height="8" as="geometry" />
        </mxCell>
        <mxCell id="fiHVySkNAZGi7D2KYSdO-88" value="用户信息：工号、其他信息？" style="text;strokeColor=none;fillColor=none;align=left;verticalAlign=top;spacingLeft=4;spacingRight=4;overflow=hidden;rotatable=0;points=[[0,0.5],[1,0.5]];portConstraint=eastwest;whiteSpace=wrap;html=1;fontSize=8;" vertex="1" parent="fiHVySkNAZGi7D2KYSdO-85">
          <mxGeometry y="60" width="120" height="26" as="geometry" />
        </mxCell>
        <mxCell id="fiHVySkNAZGi7D2KYSdO-89" value="用户配置：所属机构、部门、岗位、权限等其他信息&lt;div style=&quot;font-size: 9px;&quot;&gt;用户保存&lt;/div&gt;" style="html=1;whiteSpace=wrap;fontSize=9;align=left;" vertex="1" parent="1">
          <mxGeometry x="770" y="1140" width="110" height="50" as="geometry" />
        </mxCell>
        <mxCell id="fiHVySkNAZGi7D2KYSdO-90" value="用户权限在各系统自身调整&lt;div&gt;除工号以为的信息在各系统自身维护，包括变更，如所属机构、电话、部门...&lt;/div&gt;&lt;div&gt;SSO只做用户访问系统的维护、只保存用户的关键信息&lt;/div&gt;&lt;div&gt;SSO和其他系统交互时只使用工号&lt;/div&gt;&lt;div&gt;员工的信息由对应的SSO审批管理员在各自系统的页面中维护&lt;/div&gt;" style="rounded=0;whiteSpace=wrap;html=1;align=left;" vertex="1" parent="1">
          <mxGeometry x="1140" y="770" width="490" height="100" as="geometry" />
        </mxCell>
        <mxCell id="fiHVySkNAZGi7D2KYSdO-91" value="SSO只保存工号？状态、电话啥的要保存吗？&lt;div&gt;关系到跳转时携带的用户信息&lt;/div&gt;" style="rounded=0;whiteSpace=wrap;html=1;align=left;" vertex="1" parent="1">
          <mxGeometry x="1140" y="690" width="490" height="60" as="geometry" />
        </mxCell>
        <mxCell id="fiHVySkNAZGi7D2KYSdO-92" value="SSO不做机构、科目等参数的管理&lt;div&gt;科目、机构等参数管理在总账内管实现，财管和税务和总账内管对接&lt;/div&gt;&lt;div&gt;SSO没有机构信息，因此也不做HR系统机构和总账机构参数之间的转换、映射，因此SSO的用户信息也不做机构属性&lt;/div&gt;&lt;div&gt;且各系统自身维护用户属性可以和HR的不一致：如机构、岗位等&lt;/div&gt;" style="rounded=0;whiteSpace=wrap;html=1;align=left;" vertex="1" parent="1">
          <mxGeometry x="1140" y="900" width="490" height="80" as="geometry" />
        </mxCell>
      </root>
    </mxGraphModel>
  </diagram>
  <diagram id="Xbdx_fZFLR6yYkqCrFbr" name="gl-app-arc">
    <mxGraphModel dx="1380" dy="2004" grid="1" gridSize="10" guides="1" tooltips="1" connect="1" arrows="1" fold="1" page="1" pageScale="1" pageWidth="850" pageHeight="1100" math="0" shadow="0">
      <root>
        <mxCell id="0" />
        <mxCell id="1" parent="0" />
        <mxCell id="ssyfc34TBSF50xVvhf94-30" style="edgeStyle=orthogonalEdgeStyle;rounded=0;orthogonalLoop=1;jettySize=auto;html=1;" parent="1" source="ssyfc34TBSF50xVvhf94-3" target="ssyfc34TBSF50xVvhf94-5" edge="1">
          <mxGeometry relative="1" as="geometry" />
        </mxCell>
        <mxCell id="ssyfc34TBSF50xVvhf94-31" value="http" style="edgeLabel;html=1;align=center;verticalAlign=middle;resizable=0;points=[];" parent="ssyfc34TBSF50xVvhf94-30" vertex="1" connectable="0">
          <mxGeometry x="0.0519" y="2" relative="1" as="geometry">
            <mxPoint as="offset" />
          </mxGeometry>
        </mxCell>
        <mxCell id="ssyfc34TBSF50xVvhf94-3" value="办公网" style="sketch=0;aspect=fixed;pointerEvents=1;shadow=0;dashed=0;html=1;strokeColor=none;labelPosition=center;verticalLabelPosition=bottom;verticalAlign=top;align=center;fillColor=#00188D;shape=mxgraph.mscae.enterprise.client_application" parent="1" vertex="1">
          <mxGeometry x="80" y="364" width="50" height="32" as="geometry" />
        </mxCell>
        <mxCell id="ssyfc34TBSF50xVvhf94-32" style="edgeStyle=orthogonalEdgeStyle;rounded=0;orthogonalLoop=1;jettySize=auto;html=1;" parent="1" source="ssyfc34TBSF50xVvhf94-5" target="ssyfc34TBSF50xVvhf94-11" edge="1">
          <mxGeometry relative="1" as="geometry" />
        </mxCell>
        <mxCell id="ssyfc34TBSF50xVvhf94-33" value="http" style="edgeLabel;html=1;align=center;verticalAlign=middle;resizable=0;points=[];" parent="ssyfc34TBSF50xVvhf94-32" vertex="1" connectable="0">
          <mxGeometry x="0.0438" y="4" relative="1" as="geometry">
            <mxPoint x="-6" y="4" as="offset" />
          </mxGeometry>
        </mxCell>
        <mxCell id="ssyfc34TBSF50xVvhf94-5" value="SLB" style="image;sketch=0;aspect=fixed;html=1;points=[];align=center;fontSize=12;image=img/lib/mscae/Cloud_Service.svg;" parent="1" vertex="1">
          <mxGeometry x="220" y="359" width="50" height="42" as="geometry" />
        </mxCell>
        <mxCell id="ssyfc34TBSF50xVvhf94-8" value="OB" style="image;sketch=0;aspect=fixed;html=1;points=[];align=center;fontSize=12;image=img/lib/mscae/SQL_Database_generic.svg;" parent="1" vertex="1">
          <mxGeometry x="606.5" y="1100" width="38" height="50" as="geometry" />
        </mxCell>
        <mxCell id="ssyfc34TBSF50xVvhf94-9" value="redis" style="image;sketch=0;aspect=fixed;html=1;points=[];align=center;fontSize=12;image=img/lib/mscae/Cache_Redis_Product.svg;" parent="1" vertex="1">
          <mxGeometry x="900" y="1108" width="50" height="42" as="geometry" />
        </mxCell>
        <mxCell id="ssyfc34TBSF50xVvhf94-10" value="" style="group" parent="1" vertex="1" connectable="0">
          <mxGeometry x="348" y="280" width="334" height="200" as="geometry" />
        </mxCell>
        <mxCell id="ssyfc34TBSF50xVvhf94-11" value="..." style="whiteSpace=wrap;html=1;" parent="ssyfc34TBSF50xVvhf94-10" vertex="1">
          <mxGeometry x="10" width="70" height="200" as="geometry" />
        </mxCell>
        <mxCell id="ssyfc34TBSF50xVvhf94-12" value="" style="sketch=0;aspect=fixed;pointerEvents=1;shadow=1;dashed=0;html=1;strokeColor=none;labelPosition=center;verticalLabelPosition=bottom;verticalAlign=top;align=center;fillColor=#00188D;shape=mxgraph.mscae.enterprise.web_server" parent="ssyfc34TBSF50xVvhf94-10" vertex="1">
          <mxGeometry x="27" y="130" width="38" height="50" as="geometry" />
        </mxCell>
        <mxCell id="ssyfc34TBSF50xVvhf94-13" value="" style="sketch=0;aspect=fixed;pointerEvents=1;shadow=1;dashed=0;html=1;strokeColor=none;labelPosition=center;verticalLabelPosition=bottom;verticalAlign=top;align=center;fillColor=#00188D;shape=mxgraph.mscae.enterprise.web_server" parent="ssyfc34TBSF50xVvhf94-10" vertex="1">
          <mxGeometry x="22" y="10" width="38" height="50" as="geometry" />
        </mxCell>
        <mxCell id="ANCskS9WZcefAghS7Vtt-5" value="用户、权限、菜单" style="whiteSpace=wrap;html=1;" vertex="1" parent="ssyfc34TBSF50xVvhf94-10">
          <mxGeometry x="182" y="140" width="120" height="60" as="geometry" />
        </mxCell>
        <mxCell id="ssyfc34TBSF50xVvhf94-14" value="GL前端" style="text;html=1;align=center;verticalAlign=middle;resizable=0;points=[];autosize=1;strokeColor=none;fillColor=none;" parent="1" vertex="1">
          <mxGeometry x="364" y="250" width="60" height="30" as="geometry" />
        </mxCell>
        <mxCell id="ssyfc34TBSF50xVvhf94-20" value="oss" style="image;sketch=0;aspect=fixed;html=1;points=[];align=center;fontSize=12;image=img/lib/mscae/AzureFXTEdgeFiler.svg;" parent="1" vertex="1">
          <mxGeometry x="1056" y="1140" width="50" height="50" as="geometry" />
        </mxCell>
        <mxCell id="jorn0M6zc-gEEaef_MqQ-2" value="..." style="whiteSpace=wrap;html=1;" parent="1" vertex="1">
          <mxGeometry x="972" y="280" width="70" height="200" as="geometry" />
        </mxCell>
        <mxCell id="jorn0M6zc-gEEaef_MqQ-3" value="" style="sketch=0;aspect=fixed;pointerEvents=1;shadow=0;dashed=0;html=1;strokeColor=none;labelPosition=center;verticalLabelPosition=bottom;verticalAlign=top;align=center;fillColor=#00188D;shape=mxgraph.mscae.enterprise.database_server" parent="1" vertex="1">
          <mxGeometry x="985" y="410" width="38" height="50" as="geometry" />
        </mxCell>
        <mxCell id="jorn0M6zc-gEEaef_MqQ-4" value="" style="sketch=0;aspect=fixed;pointerEvents=1;shadow=0;dashed=0;html=1;strokeColor=none;labelPosition=center;verticalLabelPosition=bottom;verticalAlign=top;align=center;fillColor=#00188D;shape=mxgraph.mscae.enterprise.database_server" parent="1" vertex="1">
          <mxGeometry x="984" y="290" width="38" height="50" as="geometry" />
        </mxCell>
        <mxCell id="jorn0M6zc-gEEaef_MqQ-5" value="总账模块服务" style="text;html=1;align=center;verticalAlign=middle;resizable=0;points=[];autosize=1;strokeColor=none;fillColor=none;" parent="1" vertex="1">
          <mxGeometry x="956" y="250" width="100" height="30" as="geometry" />
        </mxCell>
        <mxCell id="ANCskS9WZcefAghS7Vtt-37" style="edgeStyle=orthogonalEdgeStyle;rounded=0;orthogonalLoop=1;jettySize=auto;html=1;" edge="1" parent="1" source="jorn0M6zc-gEEaef_MqQ-6" target="ssyfc34TBSF50xVvhf94-9">
          <mxGeometry relative="1" as="geometry" />
        </mxCell>
        <mxCell id="ANCskS9WZcefAghS7Vtt-38" style="edgeStyle=orthogonalEdgeStyle;rounded=0;orthogonalLoop=1;jettySize=auto;html=1;entryX=1;entryY=0.5;entryDx=0;entryDy=0;" edge="1" parent="1" source="jorn0M6zc-gEEaef_MqQ-6" target="ssyfc34TBSF50xVvhf94-29">
          <mxGeometry relative="1" as="geometry">
            <Array as="points">
              <mxPoint x="920" y="900" />
              <mxPoint x="920" y="380" />
            </Array>
          </mxGeometry>
        </mxCell>
        <mxCell id="ANCskS9WZcefAghS7Vtt-39" value="http" style="edgeLabel;html=1;align=center;verticalAlign=middle;resizable=0;points=[];" vertex="1" connectable="0" parent="ANCskS9WZcefAghS7Vtt-38">
          <mxGeometry x="0.1152" y="1" relative="1" as="geometry">
            <mxPoint as="offset" />
          </mxGeometry>
        </mxCell>
        <mxCell id="ANCskS9WZcefAghS7Vtt-54" style="edgeStyle=orthogonalEdgeStyle;rounded=0;orthogonalLoop=1;jettySize=auto;html=1;" edge="1" parent="1" source="jorn0M6zc-gEEaef_MqQ-6" target="ANCskS9WZcefAghS7Vtt-53">
          <mxGeometry relative="1" as="geometry" />
        </mxCell>
        <mxCell id="ANCskS9WZcefAghS7Vtt-55" style="edgeStyle=orthogonalEdgeStyle;rounded=0;orthogonalLoop=1;jettySize=auto;html=1;" edge="1" parent="1" source="jorn0M6zc-gEEaef_MqQ-6" target="ssyfc34TBSF50xVvhf94-20">
          <mxGeometry relative="1" as="geometry" />
        </mxCell>
        <mxCell id="jorn0M6zc-gEEaef_MqQ-6" value="..." style="whiteSpace=wrap;html=1;" parent="1" vertex="1">
          <mxGeometry x="966.5" y="800" width="70" height="200" as="geometry" />
        </mxCell>
        <mxCell id="jorn0M6zc-gEEaef_MqQ-7" value="" style="sketch=0;aspect=fixed;pointerEvents=1;shadow=0;dashed=0;html=1;strokeColor=none;labelPosition=center;verticalLabelPosition=bottom;verticalAlign=top;align=center;fillColor=#00188D;shape=mxgraph.mscae.enterprise.database_server" parent="1" vertex="1">
          <mxGeometry x="979.5" y="930" width="38" height="50" as="geometry" />
        </mxCell>
        <mxCell id="jorn0M6zc-gEEaef_MqQ-8" value="" style="sketch=0;aspect=fixed;pointerEvents=1;shadow=0;dashed=0;html=1;strokeColor=none;labelPosition=center;verticalLabelPosition=bottom;verticalAlign=top;align=center;fillColor=#00188D;shape=mxgraph.mscae.enterprise.database_server" parent="1" vertex="1">
          <mxGeometry x="978.5" y="810" width="38" height="50" as="geometry" />
        </mxCell>
        <mxCell id="jorn0M6zc-gEEaef_MqQ-9" value="作业服务器" style="text;html=1;align=center;verticalAlign=middle;resizable=0;points=[];autosize=1;strokeColor=none;fillColor=none;" parent="1" vertex="1">
          <mxGeometry x="960.5" y="770" width="80" height="30" as="geometry" />
        </mxCell>
        <mxCell id="ANCskS9WZcefAghS7Vtt-28" style="edgeStyle=orthogonalEdgeStyle;rounded=0;orthogonalLoop=1;jettySize=auto;html=1;" edge="1" parent="1" source="jorn0M6zc-gEEaef_MqQ-10" target="ANCskS9WZcefAghS7Vtt-27">
          <mxGeometry relative="1" as="geometry" />
        </mxCell>
        <mxCell id="ANCskS9WZcefAghS7Vtt-34" style="edgeStyle=orthogonalEdgeStyle;rounded=0;orthogonalLoop=1;jettySize=auto;html=1;entryX=1;entryY=0.5;entryDx=0;entryDy=0;" edge="1" parent="1" source="jorn0M6zc-gEEaef_MqQ-10" target="jorn0M6zc-gEEaef_MqQ-6">
          <mxGeometry relative="1" as="geometry" />
        </mxCell>
        <mxCell id="ANCskS9WZcefAghS7Vtt-35" value="自研 RPC" style="edgeLabel;html=1;align=center;verticalAlign=middle;resizable=0;points=[];" vertex="1" connectable="0" parent="ANCskS9WZcefAghS7Vtt-34">
          <mxGeometry x="-0.128" y="-3" relative="1" as="geometry">
            <mxPoint as="offset" />
          </mxGeometry>
        </mxCell>
        <mxCell id="ANCskS9WZcefAghS7Vtt-40" style="edgeStyle=orthogonalEdgeStyle;rounded=0;orthogonalLoop=1;jettySize=auto;html=1;entryX=0;entryY=0.5;entryDx=0;entryDy=0;" edge="1" parent="1" source="jorn0M6zc-gEEaef_MqQ-10" target="jorn0M6zc-gEEaef_MqQ-22">
          <mxGeometry relative="1" as="geometry" />
        </mxCell>
        <mxCell id="ANCskS9WZcefAghS7Vtt-41" value="http" style="edgeLabel;html=1;align=center;verticalAlign=middle;resizable=0;points=[];" vertex="1" connectable="0" parent="ANCskS9WZcefAghS7Vtt-40">
          <mxGeometry x="-0.1467" y="-2" relative="1" as="geometry">
            <mxPoint as="offset" />
          </mxGeometry>
        </mxCell>
        <mxCell id="jorn0M6zc-gEEaef_MqQ-10" value="..." style="whiteSpace=wrap;html=1;" parent="1" vertex="1">
          <mxGeometry x="1111" y="530" width="70" height="200" as="geometry" />
        </mxCell>
        <mxCell id="jorn0M6zc-gEEaef_MqQ-11" value="" style="sketch=0;aspect=fixed;pointerEvents=1;shadow=0;dashed=0;html=1;strokeColor=none;labelPosition=center;verticalLabelPosition=bottom;verticalAlign=top;align=center;fillColor=#00188D;shape=mxgraph.mscae.enterprise.database_server" parent="1" vertex="1">
          <mxGeometry x="1124" y="660" width="38" height="50" as="geometry" />
        </mxCell>
        <mxCell id="jorn0M6zc-gEEaef_MqQ-12" value="" style="sketch=0;aspect=fixed;pointerEvents=1;shadow=0;dashed=0;html=1;strokeColor=none;labelPosition=center;verticalLabelPosition=bottom;verticalAlign=top;align=center;fillColor=#00188D;shape=mxgraph.mscae.enterprise.database_server" parent="1" vertex="1">
          <mxGeometry x="1123" y="540" width="38" height="50" as="geometry" />
        </mxCell>
        <mxCell id="jorn0M6zc-gEEaef_MqQ-13" value="作业调度服务器" style="text;html=1;align=center;verticalAlign=middle;resizable=0;points=[];autosize=1;strokeColor=none;fillColor=none;" parent="1" vertex="1">
          <mxGeometry x="1090" y="500" width="110" height="30" as="geometry" />
        </mxCell>
        <mxCell id="jorn0M6zc-gEEaef_MqQ-14" value="..." style="whiteSpace=wrap;html=1;" parent="1" vertex="1">
          <mxGeometry x="1295.5" y="280" width="70" height="200" as="geometry" />
        </mxCell>
        <mxCell id="jorn0M6zc-gEEaef_MqQ-15" value="" style="sketch=0;aspect=fixed;pointerEvents=1;shadow=0;dashed=0;html=1;strokeColor=none;labelPosition=center;verticalLabelPosition=bottom;verticalAlign=top;align=center;fillColor=#00188D;shape=mxgraph.mscae.enterprise.database_server" parent="1" vertex="1">
          <mxGeometry x="1308.5" y="410" width="38" height="50" as="geometry" />
        </mxCell>
        <mxCell id="jorn0M6zc-gEEaef_MqQ-16" value="" style="sketch=0;aspect=fixed;pointerEvents=1;shadow=0;dashed=0;html=1;strokeColor=none;labelPosition=center;verticalLabelPosition=bottom;verticalAlign=top;align=center;fillColor=#00188D;shape=mxgraph.mscae.enterprise.database_server" parent="1" vertex="1">
          <mxGeometry x="1307.5" y="290" width="38" height="50" as="geometry" />
        </mxCell>
        <mxCell id="jorn0M6zc-gEEaef_MqQ-17" value="会计引擎服务" style="text;html=1;align=center;verticalAlign=middle;resizable=0;points=[];autosize=1;strokeColor=none;fillColor=none;" parent="1" vertex="1">
          <mxGeometry x="1279.5" y="250" width="100" height="30" as="geometry" />
        </mxCell>
        <mxCell id="ANCskS9WZcefAghS7Vtt-19" style="edgeStyle=orthogonalEdgeStyle;rounded=0;orthogonalLoop=1;jettySize=auto;html=1;entryX=0.5;entryY=1;entryDx=0;entryDy=0;" edge="1" parent="1" source="jorn0M6zc-gEEaef_MqQ-18" target="ssyfc34TBSF50xVvhf94-29">
          <mxGeometry relative="1" as="geometry" />
        </mxCell>
        <mxCell id="ANCskS9WZcefAghS7Vtt-20" value="http" style="edgeLabel;html=1;align=center;verticalAlign=middle;resizable=0;points=[];" vertex="1" connectable="0" parent="ANCskS9WZcefAghS7Vtt-19">
          <mxGeometry x="-0.0955" y="3" relative="1" as="geometry">
            <mxPoint y="1" as="offset" />
          </mxGeometry>
        </mxCell>
        <mxCell id="ANCskS9WZcefAghS7Vtt-25" style="edgeStyle=orthogonalEdgeStyle;rounded=0;orthogonalLoop=1;jettySize=auto;html=1;" edge="1" parent="1" source="jorn0M6zc-gEEaef_MqQ-18" target="ANCskS9WZcefAghS7Vtt-24">
          <mxGeometry relative="1" as="geometry" />
        </mxCell>
        <mxCell id="jorn0M6zc-gEEaef_MqQ-18" value="..." style="whiteSpace=wrap;html=1;" parent="1" vertex="1">
          <mxGeometry x="695" y="680" width="70" height="200" as="geometry" />
        </mxCell>
        <mxCell id="jorn0M6zc-gEEaef_MqQ-19" value="" style="sketch=0;aspect=fixed;pointerEvents=1;shadow=0;dashed=0;html=1;strokeColor=none;labelPosition=center;verticalLabelPosition=bottom;verticalAlign=top;align=center;fillColor=#00188D;shape=mxgraph.mscae.enterprise.database_server" parent="1" vertex="1">
          <mxGeometry x="708" y="810" width="38" height="50" as="geometry" />
        </mxCell>
        <mxCell id="jorn0M6zc-gEEaef_MqQ-20" value="" style="sketch=0;aspect=fixed;pointerEvents=1;shadow=0;dashed=0;html=1;strokeColor=none;labelPosition=center;verticalLabelPosition=bottom;verticalAlign=top;align=center;fillColor=#00188D;shape=mxgraph.mscae.enterprise.database_server" parent="1" vertex="1">
          <mxGeometry x="707" y="690" width="38" height="50" as="geometry" />
        </mxCell>
        <mxCell id="jorn0M6zc-gEEaef_MqQ-21" value="总账基础服务" style="text;html=1;align=center;verticalAlign=middle;resizable=0;points=[];autosize=1;strokeColor=none;fillColor=none;" parent="1" vertex="1">
          <mxGeometry x="679" y="650" width="100" height="30" as="geometry" />
        </mxCell>
        <mxCell id="ANCskS9WZcefAghS7Vtt-46" style="edgeStyle=orthogonalEdgeStyle;rounded=0;orthogonalLoop=1;jettySize=auto;html=1;entryX=0;entryY=0.5;entryDx=0;entryDy=0;" edge="1" parent="1" source="jorn0M6zc-gEEaef_MqQ-22" target="ANCskS9WZcefAghS7Vtt-43">
          <mxGeometry relative="1" as="geometry">
            <Array as="points">
              <mxPoint x="1260" y="740" />
              <mxPoint x="1260" y="1030" />
            </Array>
          </mxGeometry>
        </mxCell>
        <mxCell id="ANCskS9WZcefAghS7Vtt-47" value="http" style="edgeLabel;html=1;align=center;verticalAlign=middle;resizable=0;points=[];" vertex="1" connectable="0" parent="ANCskS9WZcefAghS7Vtt-46">
          <mxGeometry x="-0.1322" y="-1" relative="1" as="geometry">
            <mxPoint as="offset" />
          </mxGeometry>
        </mxCell>
        <mxCell id="jorn0M6zc-gEEaef_MqQ-22" value="..." style="whiteSpace=wrap;html=1;" parent="1" vertex="1">
          <mxGeometry x="1311.5" y="640" width="70" height="200" as="geometry" />
        </mxCell>
        <mxCell id="jorn0M6zc-gEEaef_MqQ-23" value="" style="sketch=0;aspect=fixed;pointerEvents=1;shadow=0;dashed=0;html=1;strokeColor=none;labelPosition=center;verticalLabelPosition=bottom;verticalAlign=top;align=center;fillColor=#00188D;shape=mxgraph.mscae.enterprise.database_server" parent="1" vertex="1">
          <mxGeometry x="1324.5" y="770" width="38" height="50" as="geometry" />
        </mxCell>
        <mxCell id="jorn0M6zc-gEEaef_MqQ-24" value="" style="sketch=0;aspect=fixed;pointerEvents=1;shadow=0;dashed=0;html=1;strokeColor=none;labelPosition=center;verticalLabelPosition=bottom;verticalAlign=top;align=center;fillColor=#00188D;shape=mxgraph.mscae.enterprise.database_server" parent="1" vertex="1">
          <mxGeometry x="1323.5" y="650" width="38" height="50" as="geometry" />
        </mxCell>
        <mxCell id="jorn0M6zc-gEEaef_MqQ-25" value="会计计量服务" style="text;html=1;align=center;verticalAlign=middle;resizable=0;points=[];autosize=1;strokeColor=none;fillColor=none;" parent="1" vertex="1">
          <mxGeometry x="1295.5" y="610" width="100" height="30" as="geometry" />
        </mxCell>
        <mxCell id="jorn0M6zc-gEEaef_MqQ-26" value="..." style="whiteSpace=wrap;html=1;" parent="1" vertex="1">
          <mxGeometry x="968.5" y="-120" width="70" height="200" as="geometry" />
        </mxCell>
        <mxCell id="jorn0M6zc-gEEaef_MqQ-27" value="" style="sketch=0;aspect=fixed;pointerEvents=1;shadow=0;dashed=0;html=1;strokeColor=none;labelPosition=center;verticalLabelPosition=bottom;verticalAlign=top;align=center;fillColor=#00188D;shape=mxgraph.mscae.enterprise.database_server" parent="1" vertex="1">
          <mxGeometry x="981.5" y="10" width="38" height="50" as="geometry" />
        </mxCell>
        <mxCell id="jorn0M6zc-gEEaef_MqQ-28" value="" style="sketch=0;aspect=fixed;pointerEvents=1;shadow=0;dashed=0;html=1;strokeColor=none;labelPosition=center;verticalLabelPosition=bottom;verticalAlign=top;align=center;fillColor=#00188D;shape=mxgraph.mscae.enterprise.database_server" parent="1" vertex="1">
          <mxGeometry x="980.5" y="-110" width="38" height="50" as="geometry" />
        </mxCell>
        <mxCell id="jorn0M6zc-gEEaef_MqQ-29" value="报表服务" style="text;html=1;align=center;verticalAlign=middle;resizable=0;points=[];autosize=1;strokeColor=none;fillColor=none;" parent="1" vertex="1">
          <mxGeometry x="967.5" y="-150" width="70" height="30" as="geometry" />
        </mxCell>
        <mxCell id="ANCskS9WZcefAghS7Vtt-3" style="edgeStyle=orthogonalEdgeStyle;rounded=0;orthogonalLoop=1;jettySize=auto;html=1;" edge="1" parent="1" source="jorn0M6zc-gEEaef_MqQ-30" target="ANCskS9WZcefAghS7Vtt-2">
          <mxGeometry relative="1" as="geometry" />
        </mxCell>
        <mxCell id="ANCskS9WZcefAghS7Vtt-6" style="edgeStyle=orthogonalEdgeStyle;rounded=0;orthogonalLoop=1;jettySize=auto;html=1;entryX=1;entryY=0.5;entryDx=0;entryDy=0;" edge="1" parent="1" source="jorn0M6zc-gEEaef_MqQ-30" target="ssyfc34TBSF50xVvhf94-29">
          <mxGeometry relative="1" as="geometry">
            <Array as="points">
              <mxPoint x="850" y="-20" />
              <mxPoint x="850" y="380" />
            </Array>
          </mxGeometry>
        </mxCell>
        <mxCell id="ANCskS9WZcefAghS7Vtt-7" value="http" style="edgeLabel;html=1;align=center;verticalAlign=middle;resizable=0;points=[];" vertex="1" connectable="0" parent="ANCskS9WZcefAghS7Vtt-6">
          <mxGeometry x="0.1781" y="2" relative="1" as="geometry">
            <mxPoint x="-2" y="-50" as="offset" />
          </mxGeometry>
        </mxCell>
        <mxCell id="jorn0M6zc-gEEaef_MqQ-30" value="..." style="whiteSpace=wrap;html=1;" parent="1" vertex="1">
          <mxGeometry x="695.5" y="-120" width="70" height="200" as="geometry" />
        </mxCell>
        <mxCell id="jorn0M6zc-gEEaef_MqQ-31" value="" style="sketch=0;aspect=fixed;pointerEvents=1;shadow=0;dashed=0;html=1;strokeColor=none;labelPosition=center;verticalLabelPosition=bottom;verticalAlign=top;align=center;fillColor=#00188D;shape=mxgraph.mscae.enterprise.database_server" parent="1" vertex="1">
          <mxGeometry x="708.5" y="10" width="38" height="50" as="geometry" />
        </mxCell>
        <mxCell id="jorn0M6zc-gEEaef_MqQ-32" value="" style="sketch=0;aspect=fixed;pointerEvents=1;shadow=0;dashed=0;html=1;strokeColor=none;labelPosition=center;verticalLabelPosition=bottom;verticalAlign=top;align=center;fillColor=#00188D;shape=mxgraph.mscae.enterprise.database_server" parent="1" vertex="1">
          <mxGeometry x="707.5" y="-110" width="38" height="50" as="geometry" />
        </mxCell>
        <mxCell id="jorn0M6zc-gEEaef_MqQ-33" value="&lt;span style=&quot;background-color: rgb(255, 247, 138);&quot;&gt;值集服务&lt;/span&gt;" style="text;html=1;align=center;verticalAlign=middle;resizable=0;points=[];autosize=1;strokeColor=none;fillColor=none;" parent="1" vertex="1">
          <mxGeometry x="694.5" y="-150" width="70" height="30" as="geometry" />
        </mxCell>
        <mxCell id="jorn0M6zc-gEEaef_MqQ-36" value="ADB" style="image;sketch=0;aspect=fixed;html=1;points=[];align=center;fontSize=12;image=img/lib/mscae/General_Storage.svg;" parent="1" vertex="1">
          <mxGeometry x="715" y="1100" width="50" height="50" as="geometry" />
        </mxCell>
        <mxCell id="ANCskS9WZcefAghS7Vtt-1" value="SLB" style="image;sketch=0;aspect=fixed;html=1;points=[];align=center;fontSize=12;image=img/lib/mscae/Cloud_Service.svg;" vertex="1" parent="1">
          <mxGeometry x="594.5" y="-42" width="50" height="42" as="geometry" />
        </mxCell>
        <mxCell id="ANCskS9WZcefAghS7Vtt-2" value="redis" style="image;sketch=0;aspect=fixed;html=1;points=[];align=center;fontSize=12;image=img/lib/mscae/Cache_Redis_Product.svg;" vertex="1" parent="1">
          <mxGeometry x="705" y="120" width="50" height="42" as="geometry" />
        </mxCell>
        <mxCell id="ANCskS9WZcefAghS7Vtt-11" style="edgeStyle=orthogonalEdgeStyle;rounded=0;orthogonalLoop=1;jettySize=auto;html=1;entryX=0.513;entryY=0.944;entryDx=0;entryDy=0;entryPerimeter=0;" edge="1" parent="1" source="ssyfc34TBSF50xVvhf94-29" target="ANCskS9WZcefAghS7Vtt-2">
          <mxGeometry relative="1" as="geometry" />
        </mxCell>
        <mxCell id="ssyfc34TBSF50xVvhf94-29" value="..." style="whiteSpace=wrap;html=1;" parent="1" vertex="1">
          <mxGeometry x="681.5" y="280" width="70" height="200" as="geometry" />
        </mxCell>
        <mxCell id="ssyfc34TBSF50xVvhf94-18" value="" style="sketch=0;aspect=fixed;pointerEvents=1;shadow=0;dashed=0;html=1;strokeColor=none;labelPosition=center;verticalLabelPosition=bottom;verticalAlign=top;align=center;fillColor=#00188D;shape=mxgraph.mscae.enterprise.database_server" parent="1" vertex="1">
          <mxGeometry x="694.5" y="410" width="38" height="50" as="geometry" />
        </mxCell>
        <mxCell id="ssyfc34TBSF50xVvhf94-17" value="" style="sketch=0;aspect=fixed;pointerEvents=1;shadow=0;dashed=0;html=1;strokeColor=none;labelPosition=center;verticalLabelPosition=bottom;verticalAlign=top;align=center;fillColor=#00188D;shape=mxgraph.mscae.enterprise.database_server" parent="1" vertex="1">
          <mxGeometry x="693.5" y="290" width="38" height="50" as="geometry" />
        </mxCell>
        <mxCell id="ssyfc34TBSF50xVvhf94-7" value="SLB" style="image;sketch=0;aspect=fixed;html=1;points=[];align=center;fontSize=12;image=img/lib/mscae/Cloud_Service.svg;" parent="1" vertex="1">
          <mxGeometry x="583.5" y="350" width="50" height="42" as="geometry" />
        </mxCell>
        <mxCell id="jorn0M6zc-gEEaef_MqQ-1" value="基础平台服务" style="text;html=1;align=center;verticalAlign=middle;resizable=0;points=[];autosize=1;strokeColor=none;fillColor=none;" parent="1" vertex="1">
          <mxGeometry x="665.5" y="250" width="100" height="30" as="geometry" />
        </mxCell>
        <mxCell id="jorn0M6zc-gEEaef_MqQ-34" value="基础平台" style="image;sketch=0;aspect=fixed;html=1;points=[];align=center;fontSize=12;image=img/lib/mscae/SQL_Database_generic.svg;" parent="1" vertex="1">
          <mxGeometry x="633.5" y="530" width="38" height="50" as="geometry" />
        </mxCell>
        <mxCell id="ANCskS9WZcefAghS7Vtt-8" style="edgeStyle=orthogonalEdgeStyle;rounded=0;orthogonalLoop=1;jettySize=auto;html=1;entryX=0.61;entryY=0.022;entryDx=0;entryDy=0;entryPerimeter=0;" edge="1" parent="1" source="ssyfc34TBSF50xVvhf94-29" target="jorn0M6zc-gEEaef_MqQ-34">
          <mxGeometry relative="1" as="geometry" />
        </mxCell>
        <mxCell id="ANCskS9WZcefAghS7Vtt-12" value="用户、权限、菜单缓存" style="whiteSpace=wrap;html=1;" vertex="1" parent="1">
          <mxGeometry x="545.5" y="30" width="120" height="60" as="geometry" />
        </mxCell>
        <mxCell id="ANCskS9WZcefAghS7Vtt-13" style="edgeStyle=orthogonalEdgeStyle;rounded=0;orthogonalLoop=1;jettySize=auto;html=1;entryX=0;entryY=0.5;entryDx=0;entryDy=0;" edge="1" parent="1" source="ssyfc34TBSF50xVvhf94-11" target="jorn0M6zc-gEEaef_MqQ-30">
          <mxGeometry relative="1" as="geometry">
            <Array as="points">
              <mxPoint x="500" y="380" />
              <mxPoint x="500" y="-20" />
            </Array>
          </mxGeometry>
        </mxCell>
        <mxCell id="ANCskS9WZcefAghS7Vtt-14" value="http" style="edgeLabel;html=1;align=center;verticalAlign=middle;resizable=0;points=[];" vertex="1" connectable="0" parent="ANCskS9WZcefAghS7Vtt-13">
          <mxGeometry x="-0.281" y="-1" relative="1" as="geometry">
            <mxPoint as="offset" />
          </mxGeometry>
        </mxCell>
        <mxCell id="ANCskS9WZcefAghS7Vtt-15" value="业务参数" style="whiteSpace=wrap;html=1;" vertex="1" parent="1">
          <mxGeometry x="545.5" y="805" width="120" height="60" as="geometry" />
        </mxCell>
        <mxCell id="ANCskS9WZcefAghS7Vtt-16" style="edgeStyle=orthogonalEdgeStyle;rounded=0;orthogonalLoop=1;jettySize=auto;html=1;entryX=0;entryY=0.5;entryDx=0;entryDy=0;" edge="1" parent="1" source="ssyfc34TBSF50xVvhf94-11" target="jorn0M6zc-gEEaef_MqQ-18">
          <mxGeometry relative="1" as="geometry">
            <Array as="points">
              <mxPoint x="500" y="380" />
              <mxPoint x="500" y="780" />
            </Array>
          </mxGeometry>
        </mxCell>
        <mxCell id="ANCskS9WZcefAghS7Vtt-17" value="http" style="edgeLabel;html=1;align=center;verticalAlign=middle;resizable=0;points=[];" vertex="1" connectable="0" parent="ANCskS9WZcefAghS7Vtt-16">
          <mxGeometry x="-0.1311" y="-5" relative="1" as="geometry">
            <mxPoint as="offset" />
          </mxGeometry>
        </mxCell>
        <mxCell id="ANCskS9WZcefAghS7Vtt-18" style="edgeStyle=orthogonalEdgeStyle;rounded=0;orthogonalLoop=1;jettySize=auto;html=1;entryX=1.085;entryY=0.514;entryDx=0;entryDy=0;entryPerimeter=0;" edge="1" parent="1" source="jorn0M6zc-gEEaef_MqQ-18" target="ANCskS9WZcefAghS7Vtt-2">
          <mxGeometry relative="1" as="geometry">
            <Array as="points">
              <mxPoint x="810" y="780" />
              <mxPoint x="810" y="142" />
            </Array>
          </mxGeometry>
        </mxCell>
        <mxCell id="ANCskS9WZcefAghS7Vtt-24" value="基础总账" style="image;sketch=0;aspect=fixed;html=1;points=[];align=center;fontSize=12;image=img/lib/mscae/SQL_Database_generic.svg;" vertex="1" parent="1">
          <mxGeometry x="717" y="930" width="38" height="50" as="geometry" />
        </mxCell>
        <mxCell id="ANCskS9WZcefAghS7Vtt-27" value="SunJob" style="image;sketch=0;aspect=fixed;html=1;points=[];align=center;fontSize=12;image=img/lib/mscae/SQL_Database_generic.svg;" vertex="1" parent="1">
          <mxGeometry x="1127" y="790" width="38" height="50" as="geometry" />
        </mxCell>
        <mxCell id="ANCskS9WZcefAghS7Vtt-30" style="edgeStyle=orthogonalEdgeStyle;rounded=0;orthogonalLoop=1;jettySize=auto;html=1;entryX=0.981;entryY=0.555;entryDx=0;entryDy=0;entryPerimeter=0;" edge="1" parent="1" source="jorn0M6zc-gEEaef_MqQ-6" target="jorn0M6zc-gEEaef_MqQ-18">
          <mxGeometry relative="1" as="geometry" />
        </mxCell>
        <mxCell id="ANCskS9WZcefAghS7Vtt-31" value="http" style="edgeLabel;html=1;align=center;verticalAlign=middle;resizable=0;points=[];" vertex="1" connectable="0" parent="ANCskS9WZcefAghS7Vtt-30">
          <mxGeometry x="0.1397" y="-2" relative="1" as="geometry">
            <mxPoint as="offset" />
          </mxGeometry>
        </mxCell>
        <mxCell id="ANCskS9WZcefAghS7Vtt-42" value="总账基础服务" style="whiteSpace=wrap;html=1;" vertex="1" parent="1">
          <mxGeometry x="1295.5" y="900" width="120" height="60" as="geometry" />
        </mxCell>
        <mxCell id="ANCskS9WZcefAghS7Vtt-43" value="平台基础服务" style="whiteSpace=wrap;html=1;" vertex="1" parent="1">
          <mxGeometry x="1295.5" y="1000" width="120" height="60" as="geometry" />
        </mxCell>
        <mxCell id="ANCskS9WZcefAghS7Vtt-44" style="edgeStyle=orthogonalEdgeStyle;rounded=0;orthogonalLoop=1;jettySize=auto;html=1;entryX=0.436;entryY=0.09;entryDx=0;entryDy=0;entryPerimeter=0;" edge="1" parent="1" source="jorn0M6zc-gEEaef_MqQ-22" target="ANCskS9WZcefAghS7Vtt-42">
          <mxGeometry relative="1" as="geometry" />
        </mxCell>
        <mxCell id="ANCskS9WZcefAghS7Vtt-45" value="http" style="edgeLabel;html=1;align=center;verticalAlign=middle;resizable=0;points=[];" vertex="1" connectable="0" parent="ANCskS9WZcefAghS7Vtt-44">
          <mxGeometry x="0.0713" relative="1" as="geometry">
            <mxPoint as="offset" />
          </mxGeometry>
        </mxCell>
        <mxCell id="ANCskS9WZcefAghS7Vtt-50" style="edgeStyle=orthogonalEdgeStyle;rounded=0;orthogonalLoop=1;jettySize=auto;html=1;entryX=1.004;entryY=0.461;entryDx=0;entryDy=0;entryPerimeter=0;" edge="1" parent="1" source="jorn0M6zc-gEEaef_MqQ-22" target="ssyfc34TBSF50xVvhf94-9">
          <mxGeometry relative="1" as="geometry" />
        </mxCell>
        <mxCell id="ANCskS9WZcefAghS7Vtt-51" value="redis" style="edgeLabel;html=1;align=center;verticalAlign=middle;resizable=0;points=[];" vertex="1" connectable="0" parent="ANCskS9WZcefAghS7Vtt-50">
          <mxGeometry x="-0.004" y="-7" relative="1" as="geometry">
            <mxPoint as="offset" />
          </mxGeometry>
        </mxCell>
        <mxCell id="ANCskS9WZcefAghS7Vtt-52" value="文件卸载、数据加工、入账【更新余额】" style="whiteSpace=wrap;html=1;" vertex="1" parent="1">
          <mxGeometry x="946" y="1020" width="120" height="60" as="geometry" />
        </mxCell>
        <mxCell id="ANCskS9WZcefAghS7Vtt-53" value="业务库" style="image;sketch=0;aspect=fixed;html=1;points=[];align=center;fontSize=12;image=img/lib/mscae/SQL_Database_generic.svg;" vertex="1" parent="1">
          <mxGeometry x="985" y="1150" width="38" height="50" as="geometry" />
        </mxCell>
      </root>
    </mxGraphModel>
  </diagram>
  <diagram id="jTT-0BNJmwjLv3c2aglS" name="Page-4">
    <mxGraphModel dx="2526" dy="1097" grid="1" gridSize="10" guides="1" tooltips="1" connect="1" arrows="1" fold="1" page="1" pageScale="1" pageWidth="850" pageHeight="1100" math="0" shadow="0">
      <root>
        <mxCell id="0" />
        <mxCell id="1" parent="0" />
        <mxCell id="GojUxmIwc-GCiDShK1vC-1" value="核心系统" style="rounded=0;whiteSpace=wrap;html=1;" vertex="1" parent="1">
          <mxGeometry x="-20" y="320" width="120" height="40" as="geometry" />
        </mxCell>
        <mxCell id="GojUxmIwc-GCiDShK1vC-2" value="资金系统" style="rounded=0;whiteSpace=wrap;html=1;" vertex="1" parent="1">
          <mxGeometry x="-20" y="380" width="120" height="40" as="geometry" />
        </mxCell>
        <mxCell id="GojUxmIwc-GCiDShK1vC-3" value="财管系统" style="rounded=0;whiteSpace=wrap;html=1;" vertex="1" parent="1">
          <mxGeometry x="-20" y="440" width="120" height="40" as="geometry" />
        </mxCell>
        <mxCell id="GojUxmIwc-GCiDShK1vC-4" value="票据系统" style="rounded=0;whiteSpace=wrap;html=1;" vertex="1" parent="1">
          <mxGeometry x="-20" y="500" width="120" height="40" as="geometry" />
        </mxCell>
        <mxCell id="GojUxmIwc-GCiDShK1vC-5" value="网贷" style="rounded=0;whiteSpace=wrap;html=1;" vertex="1" parent="1">
          <mxGeometry x="-20" y="560" width="120" height="40" as="geometry" />
        </mxCell>
        <mxCell id="GojUxmIwc-GCiDShK1vC-6" value="智慧信贷" style="rounded=0;whiteSpace=wrap;html=1;" vertex="1" parent="1">
          <mxGeometry x="-20" y="620" width="120" height="40" as="geometry" />
        </mxCell>
        <mxCell id="GojUxmIwc-GCiDShK1vC-7" value="信贷" style="rounded=0;whiteSpace=wrap;html=1;" vertex="1" parent="1">
          <mxGeometry x="-20" y="680" width="120" height="40" as="geometry" />
        </mxCell>
        <mxCell id="GojUxmIwc-GCiDShK1vC-8" value="资管" style="rounded=0;whiteSpace=wrap;html=1;" vertex="1" parent="1">
          <mxGeometry x="-20" y="740" width="120" height="40" as="geometry" />
        </mxCell>
        <mxCell id="GojUxmIwc-GCiDShK1vC-9" value="I9" style="rounded=0;whiteSpace=wrap;html=1;" vertex="1" parent="1">
          <mxGeometry x="130" y="320" width="120" height="40" as="geometry" />
        </mxCell>
        <mxCell id="GojUxmIwc-GCiDShK1vC-10" value="银联前置" style="rounded=0;whiteSpace=wrap;html=1;" vertex="1" parent="1">
          <mxGeometry x="130" y="380" width="120" height="40" as="geometry" />
        </mxCell>
        <mxCell id="GojUxmIwc-GCiDShK1vC-11" value="国内证" style="rounded=0;whiteSpace=wrap;html=1;" vertex="1" parent="1">
          <mxGeometry x="130" y="440" width="120" height="40" as="geometry" />
        </mxCell>
        <mxCell id="GojUxmIwc-GCiDShK1vC-12" value="跨境通" style="rounded=0;whiteSpace=wrap;html=1;" vertex="1" parent="1">
          <mxGeometry x="130" y="500" width="120" height="40" as="geometry" />
        </mxCell>
        <mxCell id="GojUxmIwc-GCiDShK1vC-13" value="全税" style="rounded=0;whiteSpace=wrap;html=1;" vertex="1" parent="1">
          <mxGeometry x="130" y="560" width="120" height="40" as="geometry" />
        </mxCell>
        <mxCell id="GojUxmIwc-GCiDShK1vC-14" value="国结" style="rounded=0;whiteSpace=wrap;html=1;" vertex="1" parent="1">
          <mxGeometry x="130" y="620" width="120" height="40" as="geometry" />
        </mxCell>
        <mxCell id="GojUxmIwc-GCiDShK1vC-15" value="老中" style="rounded=0;whiteSpace=wrap;html=1;" vertex="1" parent="1">
          <mxGeometry x="130" y="680" width="120" height="40" as="geometry" />
        </mxCell>
        <mxCell id="GojUxmIwc-GCiDShK1vC-16" value="账套管理" style="rounded=0;whiteSpace=wrap;html=1;" vertex="1" parent="1">
          <mxGeometry x="480" y="210" width="95" height="40" as="geometry" />
        </mxCell>
        <mxCell id="GojUxmIwc-GCiDShK1vC-17" value="税金处理" style="rounded=0;whiteSpace=wrap;html=1;" vertex="1" parent="1">
          <mxGeometry x="480" y="280" width="95" height="40" as="geometry" />
        </mxCell>
        <mxCell id="GojUxmIwc-GCiDShK1vC-18" value="合并报表" style="rounded=0;whiteSpace=wrap;html=1;" vertex="1" parent="1">
          <mxGeometry x="480" y="350" width="95" height="40" as="geometry" />
        </mxCell>
        <mxCell id="GojUxmIwc-GCiDShK1vC-19" value="科目管理" style="rounded=0;whiteSpace=wrap;html=1;" vertex="1" parent="1">
          <mxGeometry x="620" y="210" width="95" height="40" as="geometry" />
        </mxCell>
        <mxCell id="GojUxmIwc-GCiDShK1vC-20" value="会计计量" style="rounded=0;whiteSpace=wrap;html=1;" vertex="1" parent="1">
          <mxGeometry x="620" y="280" width="95" height="40" as="geometry" />
        </mxCell>
        <mxCell id="GojUxmIwc-GCiDShK1vC-21" value="日终处理" style="rounded=0;whiteSpace=wrap;html=1;" vertex="1" parent="1">
          <mxGeometry x="620" y="350" width="95" height="40" as="geometry" />
        </mxCell>
        <mxCell id="GojUxmIwc-GCiDShK1vC-22" value="币种管理" style="rounded=0;whiteSpace=wrap;html=1;" vertex="1" parent="1">
          <mxGeometry x="755" y="210" width="95" height="40" as="geometry" />
        </mxCell>
        <mxCell id="GojUxmIwc-GCiDShK1vC-23" value="会计引擎" style="rounded=0;whiteSpace=wrap;html=1;" vertex="1" parent="1">
          <mxGeometry x="755" y="280" width="95" height="40" as="geometry" />
        </mxCell>
        <mxCell id="GojUxmIwc-GCiDShK1vC-26" value="年终结算" style="rounded=0;whiteSpace=wrap;html=1;" vertex="1" parent="1">
          <mxGeometry x="755" y="350" width="95" height="40" as="geometry" />
        </mxCell>
        <mxCell id="GojUxmIwc-GCiDShK1vC-27" value="会计核算" style="rounded=0;whiteSpace=wrap;html=1;" vertex="1" parent="1">
          <mxGeometry x="890" y="210" width="95" height="40" as="geometry" />
        </mxCell>
        <mxCell id="GojUxmIwc-GCiDShK1vC-28" value="审计调整" style="rounded=0;whiteSpace=wrap;html=1;" vertex="1" parent="1">
          <mxGeometry x="890" y="280" width="95" height="40" as="geometry" />
        </mxCell>
        <mxCell id="GojUxmIwc-GCiDShK1vC-29" value="外币折算" style="rounded=0;whiteSpace=wrap;html=1;" vertex="1" parent="1">
          <mxGeometry x="890" y="350" width="95" height="40" as="geometry" />
        </mxCell>
        <mxCell id="GojUxmIwc-GCiDShK1vC-30" value="用户管理" style="rounded=0;whiteSpace=wrap;html=1;" vertex="1" parent="1">
          <mxGeometry x="480" y="500" width="95" height="40" as="geometry" />
        </mxCell>
        <mxCell id="GojUxmIwc-GCiDShK1vC-31" value="渠道管理" style="rounded=0;whiteSpace=wrap;html=1;" vertex="1" parent="1">
          <mxGeometry x="480" y="570" width="95" height="40" as="geometry" />
        </mxCell>
        <mxCell id="GojUxmIwc-GCiDShK1vC-32" value="数据字典" style="rounded=0;whiteSpace=wrap;html=1;" vertex="1" parent="1">
          <mxGeometry x="480" y="640" width="95" height="40" as="geometry" />
        </mxCell>
        <mxCell id="GojUxmIwc-GCiDShK1vC-33" value="角色管理" style="rounded=0;whiteSpace=wrap;html=1;" vertex="1" parent="1">
          <mxGeometry x="620" y="500" width="95" height="40" as="geometry" />
        </mxCell>
        <mxCell id="GojUxmIwc-GCiDShK1vC-34" value="组织管理" style="rounded=0;whiteSpace=wrap;html=1;" vertex="1" parent="1">
          <mxGeometry x="620" y="570" width="95" height="40" as="geometry" />
        </mxCell>
        <mxCell id="GojUxmIwc-GCiDShK1vC-35" value="值集" style="rounded=0;whiteSpace=wrap;html=1;" vertex="1" parent="1">
          <mxGeometry x="620" y="640" width="95" height="40" as="geometry" />
        </mxCell>
        <mxCell id="GojUxmIwc-GCiDShK1vC-36" value="机构管理" style="rounded=0;whiteSpace=wrap;html=1;" vertex="1" parent="1">
          <mxGeometry x="755" y="500" width="95" height="40" as="geometry" />
        </mxCell>
        <mxCell id="GojUxmIwc-GCiDShK1vC-37" value="应用管理" style="rounded=0;whiteSpace=wrap;html=1;" vertex="1" parent="1">
          <mxGeometry x="755" y="570" width="95" height="40" as="geometry" />
        </mxCell>
        <mxCell id="GojUxmIwc-GCiDShK1vC-38" value="表管理" style="rounded=0;whiteSpace=wrap;html=1;" vertex="1" parent="1">
          <mxGeometry x="755" y="640" width="95" height="40" as="geometry" />
        </mxCell>
        <mxCell id="GojUxmIwc-GCiDShK1vC-39" value="权限管理" style="rounded=0;whiteSpace=wrap;html=1;" vertex="1" parent="1">
          <mxGeometry x="890" y="500" width="95" height="40" as="geometry" />
        </mxCell>
        <mxCell id="GojUxmIwc-GCiDShK1vC-40" value="功能管理" style="rounded=0;whiteSpace=wrap;html=1;" vertex="1" parent="1">
          <mxGeometry x="890" y="570" width="95" height="40" as="geometry" />
        </mxCell>
        <mxCell id="GojUxmIwc-GCiDShK1vC-41" value="操作日志" style="rounded=0;whiteSpace=wrap;html=1;" vertex="1" parent="1">
          <mxGeometry x="890" y="640" width="95" height="40" as="geometry" />
        </mxCell>
        <mxCell id="GojUxmIwc-GCiDShK1vC-42" value="OB" style="rounded=0;whiteSpace=wrap;html=1;" vertex="1" parent="1">
          <mxGeometry x="480" y="800" width="95" height="40" as="geometry" />
        </mxCell>
        <mxCell id="GojUxmIwc-GCiDShK1vC-43" value="权限" style="rounded=0;whiteSpace=wrap;html=1;" vertex="1" parent="1">
          <mxGeometry x="480" y="870" width="95" height="40" as="geometry" />
        </mxCell>
        <mxCell id="GojUxmIwc-GCiDShK1vC-44" value="Redis" style="rounded=0;whiteSpace=wrap;html=1;" vertex="1" parent="1">
          <mxGeometry x="620" y="800" width="95" height="40" as="geometry" />
        </mxCell>
        <mxCell id="GojUxmIwc-GCiDShK1vC-45" value="工作流" style="rounded=0;whiteSpace=wrap;html=1;" vertex="1" parent="1">
          <mxGeometry x="620" y="870" width="95" height="40" as="geometry" />
        </mxCell>
        <mxCell id="GojUxmIwc-GCiDShK1vC-46" value="安全" style="rounded=0;whiteSpace=wrap;html=1;" vertex="1" parent="1">
          <mxGeometry x="755" y="800" width="95" height="40" as="geometry" />
        </mxCell>
        <mxCell id="GojUxmIwc-GCiDShK1vC-47" value="通信" style="rounded=0;whiteSpace=wrap;html=1;" vertex="1" parent="1">
          <mxGeometry x="755" y="870" width="95" height="40" as="geometry" />
        </mxCell>
        <mxCell id="GojUxmIwc-GCiDShK1vC-48" value="服务" style="rounded=0;whiteSpace=wrap;html=1;" vertex="1" parent="1">
          <mxGeometry x="890" y="800" width="95" height="40" as="geometry" />
        </mxCell>
        <mxCell id="GojUxmIwc-GCiDShK1vC-49" value="日志" style="rounded=0;whiteSpace=wrap;html=1;" vertex="1" parent="1">
          <mxGeometry x="890" y="870" width="95" height="40" as="geometry" />
        </mxCell>
        <mxCell id="GojUxmIwc-GCiDShK1vC-50" value="全税" style="rounded=0;whiteSpace=wrap;html=1;" vertex="1" parent="1">
          <mxGeometry x="1280" y="430" width="120" height="40" as="geometry" />
        </mxCell>
        <mxCell id="GojUxmIwc-GCiDShK1vC-51" value="数据资产平台" style="rounded=0;whiteSpace=wrap;html=1;" vertex="1" parent="1">
          <mxGeometry x="1280" y="490" width="120" height="40" as="geometry" />
        </mxCell>
        <mxCell id="GojUxmIwc-GCiDShK1vC-52" value="老中" style="rounded=0;whiteSpace=wrap;html=1;" vertex="1" parent="1">
          <mxGeometry x="1280" y="550" width="120" height="40" as="geometry" />
        </mxCell>
        <mxCell id="GojUxmIwc-GCiDShK1vC-55" value="" style="edgeStyle=orthogonalEdgeStyle;rounded=0;orthogonalLoop=1;jettySize=auto;html=1;" edge="1" parent="1" source="GojUxmIwc-GCiDShK1vC-53" target="GojUxmIwc-GCiDShK1vC-54">
          <mxGeometry relative="1" as="geometry" />
        </mxCell>
        <mxCell id="GojUxmIwc-GCiDShK1vC-53" value="PTE" style="rounded=0;whiteSpace=wrap;html=1;" vertex="1" parent="1">
          <mxGeometry x="340" y="1200" width="95" height="40" as="geometry" />
        </mxCell>
        <mxCell id="GojUxmIwc-GCiDShK1vC-54" value="VUE+ElementUI" style="shape=process;whiteSpace=wrap;html=1;backgroundOutline=1;rounded=0;" vertex="1" parent="1">
          <mxGeometry x="502.5" y="1190" width="187.5" height="60" as="geometry" />
        </mxCell>
        <mxCell id="GojUxmIwc-GCiDShK1vC-56" value="Spring Boot" style="rounded=0;whiteSpace=wrap;html=1;" vertex="1" parent="1">
          <mxGeometry x="340" y="1320" width="340" height="40" as="geometry" />
        </mxCell>
        <mxCell id="GojUxmIwc-GCiDShK1vC-57" value="JWT" style="rounded=0;whiteSpace=wrap;html=1;" vertex="1" parent="1">
          <mxGeometry x="340" y="1390" width="95" height="40" as="geometry" />
        </mxCell>
        <mxCell id="GojUxmIwc-GCiDShK1vC-58" value="Easy Excel" style="rounded=0;whiteSpace=wrap;html=1;" vertex="1" parent="1">
          <mxGeometry x="525" y="1390" width="95" height="40" as="geometry" />
        </mxCell>
        <mxCell id="GojUxmIwc-GCiDShK1vC-59" value="Mybatis-plus" style="rounded=0;whiteSpace=wrap;html=1;" vertex="1" parent="1">
          <mxGeometry x="340" y="1460" width="95" height="40" as="geometry" />
        </mxCell>
        <mxCell id="GojUxmIwc-GCiDShK1vC-60" value="Activiti" style="rounded=0;whiteSpace=wrap;html=1;" vertex="1" parent="1">
          <mxGeometry x="525" y="1460" width="95" height="40" as="geometry" />
        </mxCell>
        <mxCell id="GojUxmIwc-GCiDShK1vC-61" value="Log4j2" style="rounded=0;whiteSpace=wrap;html=1;" vertex="1" parent="1">
          <mxGeometry x="340" y="1540" width="95" height="40" as="geometry" />
        </mxCell>
        <mxCell id="GojUxmIwc-GCiDShK1vC-62" value="Druid" style="rounded=0;whiteSpace=wrap;html=1;" vertex="1" parent="1">
          <mxGeometry x="530" y="1540" width="95" height="40" as="geometry" />
        </mxCell>
      </root>
    </mxGraphModel>
  </diagram>
</mxfile>
